<mxfile host="app.diagrams.net" modified="2022-04-06T02:02:01.816Z" agent="5.0 (Macintosh; Intel Mac OS X 10_15_7) AppleWebKit/537.36 (KHTML, like Gecko) Chrome/100.0.4896.60 Safari/537.36" etag="SWw-4764DGPCjM0fKjkY" version="17.4.0" type="github">
  <diagram id="l3yEXB8GLwbaQ6SBovq4" name="Page-1">
    <mxGraphModel dx="933" dy="-107" grid="1" gridSize="10" guides="1" tooltips="1" connect="1" arrows="1" fold="1" page="1" pageScale="1" pageWidth="850" pageHeight="1100" math="0" shadow="0">
      <root>
        <mxCell id="0" />
        <mxCell id="1" parent="0" />
        <mxCell id="QQIN1nB2P8wGm5Js5ul8-2" value="" style="shape=image;verticalLabelPosition=bottom;labelBackgroundColor=default;verticalAlign=top;aspect=fixed;imageAspect=0;image=data:image/png,iVBORw0KGgoAAAANSUhEUgAAAggAAADHCAYAAAB83asrAAAAAXNSR0IArs4c6QAAIABJREFUeF7sXQd4FNXafmd2N53Qe1VAepOmNBUVBBuKiiiIlCyokKBer3qb8nu9XstVIUjZEAQFCwhWBBQEBCkqIE060qT3JJBsm/95vzmzbEJQEhJa5jzPZiczp803s3Pe+cr7aTjHMnz48CGapnUEkGEYRga/AaTzYxjG0qFDh34f3tXIkSO7BgKB+Ny6d7lcsx9//PGjYce05OTkmzRNK+73+326rnsDgYCX3w6HI3Pw4MErcvYzduzY4idOnPCnp6f7hg0b5j3H07Cr2RKwJWBLwJaALQFbAucgAe1sdV544QUdgPPFF19knWtGjRq12jAMqW59W21r1669tXPnzh8DCKp9+5KTk0eerW+XyzV60KBBT1nH586dW/zXX3/dd7b6UVFR/RMSEj6wjo8dO7ar1+uddpb66cWKFWv06KOP7rbmM3LkyOsNw1h0lvrvJSYm9gk/9u6770adOHEiWdO0E4ZhHANwzDAMAhp+L3/yySf3htd/4YUXImrUqEF5nVG2b9/uHzZsmD/8wJQpUxwZGRmu7du3o3Tp0kaFChWMdevWoVKlSsbAgQN9OTsxDEPjdXjxxRcNTZNLZl4Iu9gSsCVgS8CWgC2BQpLAWQHCiBEjlsfFxVXv06dPlK7rsX6/H6dOnUIwGMz24bzKli17xvT27NkDtsmtVKtWLdtu9rl7924EAgH4fD75eL1e+Y6MjESDBg3gdDpDbY4cOYKZM2dmq8s+WOLj442ePXvuioiIoFYhDUDWt99+W3PDhg1nThJAtWrVAnffffec8AlNmDChXVpaWmxucy9VqpT34Ycfnhd27ERycjI1K6Vzq+9wONY9/vjjgwGcAkBgkZGcnEywUhcABeQ3DMOnaRqBgc8wjI+SkpKGhvc1fPjwBZqmRRiG4Wc9fuu6Lifs9/vHPPnkk59Z9V999dVi0dHR4zVNK5ZzPsFgMKBp2r2JiYlZ4cfefvvtf+i6fsowjDRN0zL8fn+6w+FI13X99yFDhmwopHvP7taWgC0BWwK2BC5hCZwBEMaOHRuTlZW1VtO0q6677jq0aNHiEp5+4UyNYOPAgQMCcPghULG2a9SogWLFsq+9a9euxaFDh3KdTNu2beFyubIdmz9/vvzPcQiKrA/3tWnTBiVLlsxW/6OPPkJGRka2utTiUJtwxx13gHNS2pJje/bsOTJt2rRauU2G9bt16/ZJlSpVNlI7BODozJkz22zZsuWu3OoTlA0YMGCIy+UKWMcnTZrU7ejRo53OIvlNQ4YMeQPAEQIzzmnkyJH1DcN4XdUnCDppGMZJTdP4PSkxMZH1uV/Q5IgRIwYBqK9pGgHLSV3XpT7rBIPBQ0OHDp0aPvZbb73VxeFwiAByFr/f//FTTz3FuYRKcnJy22AwWJzzMwyDc8yiKSsYDGYOHTqUcrGLLQFbArYEbAkAOAMgvP3228m6rg9u3bo1WrVqZQupCEhg586dorHJysqSD7f5KVeuHOrWpaLjdFm/fj2WLFmSq1SaN2+OJk2aZDv27rvvhkxS4SYqbhOANmrUKFv9lJQUAWQ567JS+fLl8cADD2SrP3LkyDNMXlaFa6655kjnzp1XA6A26QB9ViZOnPgIgFzNQeXKlXuhR48ekwFkEtx8/PHHzQ8cOPDlWW6BE02bNm3fvn37g9bxL774In7Hjh0hjYvS+Bw3DOO4pmnThgwZ8h/1myPgMj788MPIgwcP9qTWJhgMHtd1/Ti/A4EAt9OGDh26T9O0kDnp9ddfj3U6nbn69cTExBwfOHAggVSovPDCC1HFihWLo7ZJ07RgVlaWUbZs2aDL5Qo+8sgj9CGyiy0BWwK2BM4qgWwAQamnT7D2oEGDznjzteVoS+B8JMBFnx9qTvhNDYXyqQh1S4ASbsqy6lsAIef41PTk9Imx6tD0peunsQDH3bRpk/RvgSDLnOVwONChQwcxaVnl4MGDoPYmtxIfH4+HH344m+lr3rx5oDYpt0Kw1aNHj8MKnBCwBCZMmFAiLS0tJrf61NoMGjSIzrmWXw+Sk5MrAKh+lmvw25AhQw6EHxs1alRJv99fWdM0MWVxTMusFR8f/2ufPn2+UfUJFoJjxoy5x+/352oqCwaDryYlJX1q9T927FhXZmbmDF3XQ4DFMAv7OhgIBPo99dRTNKuFSnJycvcg7VyBQBoBkGEYJ7xeL7ePPvPMMzZgOZ8fl93WlkAhSCAbQHj77bc76Lq+oGHDhrjpppsKYTi7S1sCRUcCBCQ0TdGERDNTuB8NpUBwsmPHjpD5yqrL7zp16qBEiRLZhLVmzRqkpzNw6MxCPx2ClvCycOFCZGZmhubAebBvAiqaDpVpKtSE2p6z9X/nnXdmq79v3z5MnZrN2hPqh6CPmh6CIqv88ssv4HxyK9RuDB48mGopAU7U4MyaNUvfvHlz17PcLXsSExMrF507yT5TWwIXRwLZAMLw4cNv1jRtDn/cVOfaxZaALQFbAucqAQIQamaojYmIiMjWjGBpxYoVAorCzVj8v3LlymeYM6mJWbVqVa5DN2vWDPXr1+8HYCLBxbnOz65nS8CWQN4kkA0gpKamFvP5fCd69eqF2Nhcnfjz1rtd25aALQFbAoUjAfpmbNQ0rV7hdG/3akvAlsAZToo0ItpisSVgS8CWwGUigVdGjBhxKikp6aXLZL72NG0JXDYSsAHCZXOp7InaErAlkFMCq1evxoIFC+hXkZqUlDTAlpAtAVsCBScBGyAUnCztnmwJ2BK4wBIgP8j48eM5aiAxMfE0m9oFnoc9nC2BK1ECNkC4Eq+qfU62BIqQBJKTkwUgREZGRudGVV6ERGGfqi2BApVAziiGhg6HY02PHj1QpkyZAh3I7syWgC0BWwKFIQELIBw+fDjGTtxWGBK2+yyqEsgGEEaMGPEYgFF2mGNRvR3s87YlcPlJwAIItonh8rt29owvbQnYAOHSvj727GwJ2BL4EwnYAMG+RWwJFI4EbIBQOHK1e7UlYEvgAknABggXSND2MEVOAjZAKHKX3D5hWwJXlgRsgHBlXU/7bC4dCdgA4dK5FvZMbAnYEsiHBGyAkA+h2U1sCZyDBM4ACJqmjWIUAzPh2cWWgC0BWwKXugRWr169debMmR2fe+65nZf6XO352RK4nCSQDSBMnz79Br/fP//++++/nM7BnqstAVsCRVsC0zRNu69oi8A+e1sCBS+BbADBMIzGAHJPoVbwY9s92hKwJWBLoCAkYAOEgpCi3YctgRwSyAkQmgP4+UJJ6cnJzXBvi2cxefE/ULtCS1QtVR83N+iH0nHnnur927XjsGzr5/jH3V9eqGnb49gSsCVwaUnABgiX1vWwZ3OFSCAnQGgFYNmFOreE1OpI6b9DhjOMIMbOewLf/ToRrz+4DNXLNDqnaRAgzPv1Pfznge/Pqb5dyZaALYErSwLHjh2bM378+CeefvrpTVfWmdlnY0vg4kogJ0BoC2DRhZrSg+/E4aMn0rMN9+vvCzHmu8cxoveac5oGAcK3a1Pw2oMXDNec07zsSpemBJK/7Y/ebV9BiZhyuU4wEPTDoZ/O+fPsR23wYvdvEO2Ku2AnlJF5DLFRJS7YeJf7QGPHjoXX6z2VmJgYc7mfiz1/WwKXkgRyRjEkREZGeh555BFERUUV+jy7va3js6HBbOPsPrIe/5p+K1IH7MKoOW78/NsMOPUIvPnwCsRFlsCeo5sxbkES1uyajyql6qJTowTROrzR88dCn689wOUtgaARwPz1kxAXVQqtrr4z15NZsX0WDBhoXqMLsnwZmLVmDFpcdTsql6x7wU6+29saxvXfiTLFql6wMS/ngewwx8v56tlzv5QlcEaYY0RExKhevXohNja20OfNB+EE9z78fnSjjJWeeQSvf90Dwx9ehSVbpuPHbV/gvz0WQ9d02U9/hc+Xv4HSxaqiT7tXpQ01CLPXjMUbPX8q9PnaA1z5Eli+fSaKR5dFrfItLtLJGiBwfm/gQcRH2wnTzuUi2ADhXKRk17ElkHcJ5AQIgyMiIpKpQYiOjs57b3lsYb0peeYNwZGMPWh51Z24s1kiYiLj8eHSYSgVUwmdG7ul1zW7vkPqgqdENfzCPbOgaboNEPIob7s6MOzT28TEULlkHTw3pS0OntiBa2t0xdDbJmL8gqexcOOHiI4ohgrFa+LFe2ejj6c83nxoOUrHVUFG1jE89cG1iHLFYXiv1bmKMz3zKBLfbwiv/xRuqNcbA254C+//8Hc80u6VUP0vVryFFlffgVNZaRj2WWc4dBf+cfdXiI0sgddm3I9tB1ageulGuLXRANzRNBGLN0/HqDkDUDK2Iv7b4wepN2hCbbz+4FK8MK0T2td5EPe0eKbIXl4bIBTZS2+feCFLIBtAePvtt5+Jjo5+7cKZGDR8NtTI9RQ/Wvoi1u9ZjGH3fiPHX/r8DnRpPEhUxLXKt0S35k/DF8jC/PXvY87aVLz64JJCFpXd/ZUggec+bouuTZ7Ab4dWi8mqSbVbsOPQGmT6MsRklbpgKO5oliR+CDfX74t7hzvxv4d+FnDwypfdMOTWd0UMP/32FXq1+bcs2uEldcGTqF66IWqUbYzth9YgI+s4ftj0Me669im0u+YBqfrExHoY1v1bPDX5Wjx52yS4HBGiRataqgE27F2M9xY9iyGdxqNSidr47eAqLP/ta9zScACOZezFlGUvIfmRX9F7TGlULFEb3Vs+K1E8Nco2wderRkLXnGKeczkir4TL9afnYBgGRo4cyXoBO5vjn4rLrmBLIE8SyKlB+FdUVNSwPn36ICIiIk8d5acyH77Tk/y5Ng0aQQz7tDMOntiJTo3cOJqxF4+2fw07Dq3F6O8GYePepahaqh7uuvZJMUf8q9vX+ZmC3aaISYAAgX4rTardimc/vh63NXoM19W6R8ABy9BJTfF6z2WhBfbe4Q68/uCP2LR/Gbz+LNx97ZNSb+fhdXLf+fyZ+HLl27JvYMd3UK10Q7z0+e24v9U/xHehQvGrsWHvUkz64Xn8+755eP+Hv8Ef8KJvhzcwaq4b2w+uxoPXvYCm1TpB1x3Yun85nv6wRQg4U8vWq83LqFa6gYwxbsFQdGv+F3jmDQ75KXAuKfOH4C9dP8a63Qswb/17+PtdXxSJK+v3+zF69GgbIBSJq22f5IWWQDaAMHz48FdiYmKee/TRR+F0nvbkLqxJ0RlMQ7YpnDGUWYcle73sbamF+ON+Cusc7H4vLwkQINzacABubtCXwbX4adtXGPFNX4zpu0VU9+7xNfBOn43ZAMJrD/6IzfuXAYaGLk0eMwHCobVYtWsO7myWBEsHdvpeNrBgwweYuPCvGJ/wu9R/b9HzOH5yPxZt+hiTBh2Gy2k6AfM+fmtWLxxN34+X7psDRvH8bWqHbAChXqW2qFuxDepX6oCmNW6VuT08qiSG9159hiPj4s2f4MuVw/HKAwsvrwuTz9n6fD6MGTMGhmEcS0pKKpnPbuxmtgRsCeQigZwahP/FxMQ81a9fP2iaveDad8yVJwEChNsaD8I1Fa6DZ/5glCtWA4s2fQRPv98kuqH/uCqoU+F63NKwP66tcZuYGOgAGx0Rh6RJjdG1yWDUq9QOnnlPiKo/JiI+m5BWbp+NmWtGi6Pjsq2fibMhy8G0nSDvx2M3j0XnRqZfzdDJTVGz3LU4nL4HaZmH8b+eP2Ht7gX4xyc34rpa92LIrakCGMZ//zSuLtsU/qAP97X6G2qXb4nnp7TH010+yBUg0Kehdc27r7yLd5YzWr9+/aL69eu3LzInbJ+oLYELJIFsKGD+/PmPlS1bdlT9+vUv0PD2MLYELqwEpv74Mq6reQ+qlq6PBRsmY9XOObilQT/Ur2yuL7/+vghLt0xDtxbPoFRsJYz8tj96tf0PSsSUx0lvGt5b9Fd5m7+xXu+zTnzW6rHYtG8pujR5XBZzlpU7vsHbsx8RTUU4p8L7i54HuRd6tfsPnLpLzA+j5w5C3UrUdPSXtjSrzVozGsWiSkskT5QrVvwS6lS8TkBNeFm/5wdQ41DEis2kWMQuuH26F0YCOYmSqD8ddWGGtkexJVB0JDBw/NVC/hXpKvzw4aIj1dCZ2gChCF50+5QLXwI2QCh8GdsjFHEJkEacfB10trVLoUjABgiFIla706IuARsgFPU7wD5/WwKXuQSWL1++evHixbckJiaaDh92sSVgS6BAJJANIBw7duwxh8MxKi7uwvHOM0zp1KlT4hSZ8xMZGZmrsyRjn1lsR8oCuQfsTmwJXLYSOHToED788ENGMSxKSkqyHRUv2ytpT/xSlEDOKIZZsbGxnRnFcCHK559/DoYp7d+/XxZ7XddDIIHblStXRpcuXbJN5bvvvsPevXtD9cIP0rmySZMmoV0EEhyDACRncTgcuP3228+glF6/fj0IWsgDYX1cLhdiYmJwIYHThZC/PYYtgctdAnv27MG0adMIEL5NSkrqdLmfjz1/WwKXkgRy8iBsiIuLq1PYAGHJkiX4+eefRQ7NmzdHZmamLMqBQCD0HQwGwQW/bt3sSXI++ugjHD58GDyesxBM1KpVK7T7yJEj8naRW11WuvfeewWEWGXDhg349ttvz3p9nnjiCQExVlm7di3mzZuXa30CkMcffzzbMZ7zTz/9JOCGPBOsw29+ypYti1tuuSVb/Z07d2Lbtm2heuFjsw1lZxdbAkVZAtu3b8eXX35JgPB5UlJSt6IsC/vcbQkUtARyahB2xcbGViksgMCFesaMGdixYwfKlCkjb/DFihUr6HM6r/44N6/XKx9qN6zv4sWLo2HDhtn6pmaCGorcSrVq1dCmTZtsh77//nvwjSe8UMtBuVBbcf/992c7NnnyZNF+sI5Vz9quUKGCABy7nLsECEIJzggccyvUEuWWpOzkyZMCDC0NV/j2uY9u1ywMCWzatAmzZ8/mb+i9oUOH9imMMew+bQkUVQnkBAhHYmNjSxYGQODC9sEHH8jDuVmzZmjXrl1RlfkZAIGyCdcOWBUIHAhSLFBg+V7w+0Jk27xSLhA1U5MmTRJNDEHA77+b7IY5C0HawIEDs+2mxurEiRO5+sjQ9MTMp+FlzZo1WL58ea79U8NVvnz5bMd2796NAwcOSHp1fuh3w28mS+Nc7fLHEli3bh1odjQM442kpKSim7HKvlFsCRSCBHICBG9sbKyrMAACVfdU4fMt/KabbiqEUynaXXJROnr06BlmiqItFWDx4sVYvXq1AK3GjRujZs2aYqLKrVCrFW5yYp1ffvlFfGTYPvxDbQTv5Zxmnvfffx/Hjh3Ltf9WrVqhdevW2Y698847ZzWBNWrUCDfeeGOoPjUZ7J9ardzKPffcgypVqoQOcd5z587N1aRFMNShQ4dsOVcIhHi+uRVq+gjsL7WycuVKLFq0iADh2aSkpNcutfnZ87ElcDlLICdAMPhmWhgAYfr06fKg6tatmx19UMB3TLh2pnv37qhUqVIBj3B5dvfjjz9i2bJl4t/BxZNv55daSU9PFw0FF/2srKzQN69py5YmC6NVWGfOnDlSL7dCk114kjXa5ykDaqKsD7UplknrvvvuyyaThQsXnhUgFNZz4Xyvx8aNG/HNN9+kG4ZxY1JSUu6qm/MdxG5vS6CISuCCAYQiKt8LdtpcZCZOnIhy5cqhR48eF2zcS3UgtXCI6eaxxx7L1YRzqc69IOcVbpZiv9b/3KbJJbwQOFAzkluhHC9EArf8nPvJkyf/ERsb+3J+2tptbAnYEji7BLIBhF9++eXpBg0avHGpPgjsC/nHEqC9/ODBg6IBKuo+ClOnThV/F7fbbWusCuGHQzPKihUr0LFjx0LoPc9dJmqalpznVnYDWwK2BP5QAjaT4hV0gyxdulTCKPv27VvkORsYUkqg27Rp0yvoCl86p2L5TuQMFb5IM3xY07QPLtLY9rC2BK5YCVwQgEC1ps16WPj3kAUQHn300UsufLTwz94e4UJKgBwdDPGl0yWdLy9y6a1p2qSLPAd7eFsCV5wEcgIEMvu8U9Bn+emnn8qClZMIqKDHKer92RqEon4HXLjzP378OMjTQd+EQYMGXbiBc4xEn4kJEyYsTEhI6HDRJmEPbEvgCpVANoDwww8/jGjQoMEQkgIVZElNTUXJkiVtYp+CFGoufdkAoZAFbHcfkgC1gvxdk8hryJAhF00yVvh0YmJitmfZRZuQPbAtgStIAmdEMZChLyej3/meb0pKCkqXLm0DhPMV5J+0twHCaQExFPBSDGss5FvggnY/btw4GyBcUInbg9kSuLASOAMgkCL47rvvLtBZjBkzRsLvbGrgAhXrGZ3ZAOG0SEaNGoUBAwZk4wUoXOkXvd4JEEgexTDSi1VsDcLFkrw9blGQwBkAgcmOcmZQPF9B0OO5YsWKNkA4X0H+SXvS/BIk9O7dW+h6i3JJTk4W2uRw4qCiLI/COHcCBHInMJT0YhUbIFwsydvjFgUJnAEQmEHx5ptvLtBz58OaFLa2BqFAxWp39gcS4D3HN1ub06PwbhMCBBZqai5WsQHCxZK8PW5RkMAZAIFx4+3bty/Qc7cBQoGK0+7sTyTAt1pqrQYPHmyH1xbi3UKAQDZG8m5crGIDhIsleXvcoiCBMwBCbgllzlcQTNLERDj82MWWQGFLIC0tjaFvF9W7vrDP8VLonwCBv2nmV7lYhYRYS5Ys2ZiYmFj3Ys3BHteWwJUqgWwAYeTIkZl33XVXZNWqVa/U87XPqwhIYO/evfjkk09sgFDI19rK23CxzTiazcJWyFfa7r6oSiAbQDhx4sRXxYoVu72oCuNyP2+mAya7HTM6FmXnvM2bN2PWrFk2QLjcb+hznL8NEM5RUHY1WwJ5lEBOJsWvAXTJYx929UtEAnaY4+kLsXbtWjRs2PASuTL2NApTAjZAKEzp2n0XZQnkBAjfALi1oAVy+PBhYVIkLatdCk8CNkAoPNnaPV+6ErABwqV7beyZXd4SyAkQFgAocE7zkSNHom7dunYuhkK+V2yAUMgCtrvPJgFGi2RmZiImJuaiSWbbtm2YMWPGjsTExBoXbRL2wLYErlAJZAMIX331Vdrtt98eV9DnyjDHevXq2QChoAWboz8bIBSygO3uQxIIBAIYP348qlSpUuDEankRsx3mmBdp2XVtCeRNAiGA8NZbbzV1OBwrn3jiiQI3BRAgNGjQAB07dszb7OzaeZKADRBMcfHNlmatsmXL5kl+duVzlwAplt99910BCF27dj33hgVc0wYIBSxQuztbAmESCAGEt99+u4Ou6wsKIzMbAULjxo1xww035Ev4BgA7Vdufi84GCKaMPv74Yxw4cMCOYvjzWybfNbxer3BN1KhRA506dcp3P+fb8JtvvsHGjRthZ3M8X0na7W0JnCmB0Lo7fPjw2zRNm1lYAOF8GBq7fjcPJV0RiHY6EOlwIFLXEeVwIELn/9zWZTuK/zt1RGjmcdblsUjdgQhu67rUD++D2xFXiPMkAQJD/B566CFhuCuqZdKkSTh69KgNEArxBmC2TAIE5m4paGr2vEx79uzZ2LRpkw0Q8iI0u64tgXOUQLgGobuu658UFkBo3rw52rRpc47TOl3tuRUrMWrT5jy3u9QauHSCGPPjDwbh0HWsvL0LSkdGXmpTveznw4WLbIqFcS9f9sIpoBM4deoU3nvvPdSpUwc33nhjAfWa925mzpyJLVu2BBITE515b223sCVgS+CPJBCuQeiradr4wnio0sTQrl07NGvWLF9XI/6jKahQUsMtLUvB581CAJHw+33weTMR0KIRCDrh82bAH9ARgBM+nx/+QBCBoA5fUIPf50UgoMEX1KWdPwAEuD9gSD2zMAQzfJuGDf6vQjMNA9C4zf385NxmH6xPkfJzup5hnO7XQBBZXgO6pmHOLR3RonTpfMnEbnR2CZACmAtYYdzLttxNCZCUiwCBXBP8bV+s8vXXXxMgeJOSkmykfbEugj3uFSuBcICQpGna24XxUN2/fz/KlSuX78Q5BAiVykSiSwsXNN0FI+gHAlnQXDGAHgHDfxLQNGiaE0bQJ9vQXOaCHjgldTTdAcOXDuiRar8XmoP1/UAwAM0RYfbF9kYQmsMFw59pLvSOKEDth+40//dnSD+aI1qNT8CgAUZAztPQo2RswzBgsE7AByPglXlN/PYE4l0u7O5+zxV7Y13MExszZgzoRFcY9/LFPK/zHTsrEEDfJUtxZ5XK6Fnj/KICGd44ceJEXHfddWjSpMn5Ti3f7b/77jusW7fuvcTExD757sRuaEvAlkCuEgiPYrixZMmS8/r0ufR+ZwIQSrvQ9bp4GIEswDCgOaNlQeb/GhdtBGFYCz3f9q3CxZr1DT9AAAEDmmgC2PaUfGsOvnzoMAx/tmMEHAQEXNjNMbjwO6AFAwIcDN0JzQgIhjAEGOgm+NB0sw232T7o5yjmjDQHxs04aAOEQvxBEiDwmjPdc15L6patGLVxE6bf2AGBoAG/EYTfMOAPGgjw26BmSn2r/TweYD3Zr+oFzXZWm9CxYDCkp8rr3M63/qGsLCRv2Ii/NqiPfzQ6f5ZJahEuJgfC6Z843wjsYkvAlkBBSyAnUVLYylrQQ+W/PwEIpXR0aR0HcLF1xUHTIxD0HjMXdy7IvgwTNGguGIYPGtX61BYYfhNEOCLVQg2A2gHfSVnkNVesLNr8n1oDUEORdRxwRJhtROtgai6omZC+CDR0h6nFEK2FV639nIvSVFAjQS1GIAOaRu2Eg6OJJiJ15vFCAQhr1qzh2xR69OiRb21N/q/SpdOSJgYuXHTWzEvhAnr1p5/npcllUdcyelGzRcBSJz4eP3W97bKY+7lM0mZSPBcp2XVsCeRdApcRQHCgSwunCQJ0LtwnZOE2zQhZoh0Qs4C4DtB8EGluBzKUWUEzF3TuD9CM4BPzAIGA4bc0CREmcOALCYEH+2WRxd6pzApOwBkF+NJNcwePE7QQMOhRMAIEHqweY5pTIdWNAAAgAElEQVQoqGHQCRDY3jRxFBZAmDNnDnbu3IlevXoV6WRN6enpYIbBqKioPP0iDmVm4prPv5Q3f3IDRhkGojQNkRq3gWjDQASjYADEBIKyHQUN0UYQdEKNDgaljUTPsK3Ud4CziAkEoEdHI9bnlf9ZVxdtVBB6IIBAhMu8b/x+GBKBoiErNgaRGRmy39B0eGNiEHkyA76ICLi8Jig1D9I/RhMAqsk261PbpUP3+6FTg6Zp2BYZhYfSM/Cvxo3wl/r18iSbS7myDRAu5atjz+1ylsAFAQirVq06Lzul6YMQga7UICizgiy41BKIpoAPV/NU+JiUh6V1TJkTRMXPB6efYIK+A1zcHSZQUI6IYr5gv5rD9DlQZgUBIWJKMMfSqCSmbwF9FSxzhdTxm/cCfR6CfjFnyKCaAxqUWcIAUr8+WigahK+++koIgh5++GFZIO2Sdwn0XbwE03buwiHNQECFinIRD/1QxFxlIKjrpiuqrstizIVY1mru570h94EuAIAfq761mIcWdvFRcZgLezCo/Gc06VP8aqz21lxYn/sNwwQW6jpLPR5TIbs8xjEF7Kp5bQsauC5o4IXGjfD0lQMQ/JpGVZ1dbAnYEihoCVwQgMAohm7duqFq1ar5mn+ZKZ+gTAkNXduWh+E9Ds0ZZT6A/afkTV3U+tQaiM3fBSPAN/egmCHodBjyBaBjIXTVRhfnQjEdsI33hDJXOE2nQ5oYaD4gMAAXCEIPLvT0ZXAoUwPHizAfwIFMU6MgmgJum0DDjGAgkDBNEexnXCGZGKZPny7e5T179izSPAj5uslUo54LF2HG73twwEnAZy7CXGj5Fm4t4FzQZXHmom2BA00z6wWDcm8GnU44CBoIDpxOU1NAYME2atFnW/7PvkKAQgEA7md7LRCAP4KAUwEAggn25feb+zlHah0Iiq1jCjgI6FBzYZ1NERFom+UrEIBAtkpqq0qXLo1ixYqdj8jPq+28efOwdu3aeYmJiTZN63lJ0m5sS+BMCYQ7KdYrX778r1xcCroQINx7772oXLlyvrquNu1TxBQLSBSDqP757sZF3BmtQIBf3t41R5QZhUCfAPof8E2fAIH7xbmRdWKkD9NE4YRGs4C1zf3K3MC+5W1PoiDorBhhmhXYF/ulEyK3BRAwosEBOGOljhRGOrDQ5CBzYV+ZMnbqzLRC0SB8+OGHMuSDDz5YpH0Q8nWTqUb3zF+Aufv2C0Dg4hx6kw8ERGPAN3aHAg2yiPuogQL8ar9ccpfLVO37/QhYi3jYGz375eIt9axtpzMbuGBbAgQ/eTIICAg0lKaBY/pdBLY6dB/NZQaCHCcQMNuEAQoLnDiysrAhOgZtvQUDEI4cOYKPPvpI2FFJo36ximLN3JmYmFj9Ys3BHteWwJUqgRBASE5OnmUYRufCCA0jQKDjHEMd81Pqfv4lEONHl1YxpqpfIhFcYpc1i3rDV8dMc4MeWiTN8EJdveHTuZD2W6pwdRNMcHHnRyId2KdSzTJagX1SmyCagHCzgqlaligGLv4EAQyZNILmvKjapRZD2qjhRAUcgdRCimJg2Bnt7pR1US5r166VPAzly5fPsxhum/sdFh88hIPWrSXXUcJUTpsPwtT/HMBS+YfABM0QBBdKxc83fjlmFasvuXWVWUH1czazgnk/5WJWsMwcxKR+v4CI0FhsQ1Iu7nc6sVXTcF2gYEwMhw4dEkprkiRdTIDwwQcf0Ky2OTEx8Zo8X2y7gS0BWwJ/KIELBhBoFy9VqlS+Lse1M2bipCtDRTEEoLkY4qibUQlWKKE/Axp9CmgTZrgjnQYlosB8uzcjHDRxHDQjEsxoAzPEUYMRZLik6UwoWgjlz8DF3nT8YugioxY4Bv0XaFtWoZPUItDEoICGaZbgcGxDXwYCBtPxjOGW474+VigaBI/HgxIlSuCBBx7Il5yvlEYMc7z22mvRqlWrPJ/Szd/OwU+HjwhAkOsebtcPBk2bv1qoQ/4HyqxgmR4ICFiPb/2iKVCqf0vln81PQfkZiOlBmSukvdICyPjKDEHQwf2h8RVQkXuNZgaaMpSJQsZQpghqKrh/Y2Qk2p3KKhATA3NdTJkyBTfddNNFBQgkazp+/PjaxMTERnm+2IXQIG7KlLKa3/jEyNTuS+/3wMFCGOKidBk1ZUq1zAce2HlRBr8Ag/bu3Ts2MjKy8/Hjx7+aOnVqmAfwBRj8Eh6i0AEC08KOGjUK5FeIj4/PlyjazvoGh/UT6NKc/gOxKvKAJEaMFog2QQAXbBXKKGRFEkVwyjQruIqZC3/mMcAZaZoGso6Kul9jRIREFzBCgm1oiiDZEs0KDuXnEB1GzhRnhiv6GcUQAYPz8R43HdJIiCTES1mKXInbPnOb/flOyHzHzSwcoqQffvgBLpcrXwtjvi7MJdqIAKFly5YgvXdeyw2zv8XKo0dxwGE6CFpaADEXcBHXdXkj51s6/6e5gQs2F27uZz1fZKSYDsRPQS3OXMDF54DAgW14x1r+B2o/TQc85ouKMk0PYf4LDq/XNDdQU+DzybysvjSaHCIj4aA2Isx0IW0YyUEtgs8nAKGt118gAIHkZ1OnTr3oAIEZJdPT01ckJibm/WLn9eY4h/pxH348VwPoD8G3DIuO9aRJwEKyFqoitaDB7WDQgK4HNctRSdfowMI6pFqlY0rQMBGf8sbWgtQJwQga0HRzH4/pCBrsIzSGWV+z6gSlP3NsDWwcZAtprzsC7E/juNb4oi51CPMHguzfeEDT9Pi0Bx+4Ip1BBwwYUF7XddpnbwIwA8B+wzC8/GiaRrDg0zTtlKZp4tRjGMZRAFnBYNA6znA31vEGAoFMfjudzqxAIOD1+XzeiIiILK9ZshwOhzczM9M3depU6/44h7vqwlZxu923A5ju8XgYwGUWmhgAdB48eHCBzoaMdnxgDxgwANHRfPPPe+k0Zy52Ig1dW0abNn+5t6k9oHMivcctGmQVycA3d8WoKGRH4iCoQhb5P7fFDMC+zIe1+BhI5APNBAxNjDwdrWAGkJlaBIstkb9TRww0migM2qpV1EA2M4c6VyFUYt/8zetInVk4GoS8S/bKbMH7rXXr1vmi9iYYXXPsmAAEK+LAeiu31P/hEQbyxLA0BPQzUNEG4jOQ0xShIgwsk4NEQVhaAMvPQGkoTK2VxOSInwHBgDW+PKSsaAUVFpnNrMApeb3SRiIslP/DFqcTbQoIIOzbt08AAlO4X0wTg6LVXpKYmJj3RC8Fffu/805csVJl0gq620umPwPT0h7qcd8lM58CmkhCQsKzmqb9t4C6u5K6aZ8NIOi63vnxxx8v0BO0AMITTzwBPZ9ZE++evwAbvYfQ5fpSisqY0QOm+cBkO1TmBsWLIKRHihJZAs4CXvy+cpHpCOBLA5wxqNikLRxcBCTagPTNjDDgk9f0ITABQRhTo0XxrEIb6UugWUBDWBjpxGbmYKCJQ7QPEj5p7WfoJUGjhtRC0iAU6IW7jDsjQGBiMKYYz2tpPXMW1h8/IQCBi7w4ACrnQFnYaePnlbWcDukoqLQIlulAzAoq3DEcXIRCHOmjQA2C8lGg1kHaKBOB1LNCJMMcHUO+DMqfQfwc1NwEjLCN0lwIoOA4lnMjgM0OB9r4AgWiQdi7dy8++eSTiw4Qxo4dC6/XOycxMfHWvF7rwqgfN/lDt6brYyfWrYN6MdGhjCzyaJE/KgTW+t98IzWPhe0L35asLmbj7PX4nqT2WJlfrHMK/S91stfL2bfVqRl/o+ah2rFl342bcczvR1rPHoXOWOl2uysGAoGs1NTUI4Vxfc7W52OPPVYnEAhsaFP7FjSv0h6M0gk6/Qj6DXPb4RfFciBA4M8XwgCC3A5S9RJA0KBSJiBKGqkvoc1UzgQRYB8QhZDUkWNSX314jPt8DJ9m1FQAQa/URlD3i5ucOMY7uJYxugqAk1F6BgwvneNVrh+/btbRDcDHNZKKJvrAid4JcNFpn3xAfFao1EE85qIplO/GbB/E9iMbkZmVyfuybTaA4HK5Og8cOPBCXpdzGqvH94uwigChBUMPKRCaCKjWd5hqfnFCVORE3nQaj02zAn0LvCek/rrpY9Hgrl4AyZEICoToKFLAgpgYpFjOiVbkA6+Mydxo5n84ZUZRsA+yOFLrIBESZlilaCHEf4EXk1EQKmcE61CzwEgKRzRSZxWOieGchFkEKhEgtG/fPl9vts1nzMTmtDQTIFjhgrwz6OhHIKrCD0V3rKIVLN8A8TmwzAqKAEn8FNTCbW1LWKLqS6IdaFZQZgnL/0CiGGg6iIoK+RJY4wsI4INHRUFQS2CZK9hGTBTKrMCIBvFZCAaxuQA1CAcPHsS0adMkiqFevYtHujR79uzgpk2bOiYmJi64FG7tuMkfDdZ0Lfn9enVQP4Z0W5d/uXX1GhzxnR0guN1ul8fjMR23wsr999/PGPDA1KlTlZr2z2Xhdrv/DuA+j8eTv8x+fz4E7r//fkfOOVkAoV39W9Gy/M1AtA9agKHwOrQYH+B3wMhyAC6ar7kw64BTLcBeHVoEQQOgZZKaX4MW7wOy1GIeEQB8DI3XoEVxHdBgnHJCi6UpG7ItaxaPsV8u3lzMOR4Xe7bPdJhgIJqaczEgQXOo5IA+TeYidU85gIig+f9JJ4wIc74EDAYBAwEEtzOc0OLNddPw0aHfBB08NmnJSBw4vhcVK1Z0hSdrGlKnTp0RnTt3PgcRX9gqvRb9gJ8zD6FrC8uJkAs3BaJMYsJ5EOZcaDkbSsgin+4uzP9PAmp37omI2HgUr3wVXFHROLx9C7bMngRXbAk0eygRv69cjKqtO+LU0cNI27sDOxbPRMDnRauEF7D+qwlocFcfwBWHLd9+hNo33QmDYEHi49Vvw8r2aJEzWZEP5vuiqcEgk2I+ohiIVBfPWovPUhejadua6PXULRf2IlxGoxEg5HfhavrV19iWni5OisItQBW9ikIQZsIw/wFxAlRv6BSPOApSK6De/i0HQysKQkwElhNhGNmRvO2zvRX5YAESZVaweBKEYdHiZlCmDLOhaQ4hOCBo4ZzpD0EtRmgumobNul5gGgQO6/V6LwXGzq80TbvzUrk9iyhA+D+Px/NCDgUI3G73awAqejye3rldH7fbHWMYxscpKSmh6+d2u18EcNzj8byVn2vqdrtnejyeLmdrO2jQoBp+v7/+uHHjvg6vEwII13RCq5odzGc1YQ0XV9E8m0R7snBzgQ9P7qvI+cz9moAFQQtsLzznXCPUWzv/9+owCDQIBLhYc7FnvyxqONN7hW1MrQ7BidSxtAXWMWoDZF0xAD+fV7SEU9NAXhRzzZFFnvt4kF8EJwQjziAMP7ULmgkiJF5bw6RlyQIQAERcEKKk/Fzo8DaPLl6CxWl7cXubkib/gYNshkqtLyYCIr1TyqxgLtqSH0EYDGmV8GHeKwNx1Q33IOjzotTVdRFfrQEOrV+GMrWb4MTvW2i1xW/fT8O1ff6OeS/1Q/lG1yG6RFnU6HA3lo35O2q07yZT8mUcQ9Cfhert7lFmBe5V/j/0dZCHtUrcJGObzmlWEicuEOO+PnLWKAZvlh8rvt+MnZv2w+f1Y/HsX/HTdxvh9wVQpWZZXNuhNlrdXBddHz7TQ/+LL76Qh/Z9911xZsJzvoWorqXamd71derUOed2VsWGX3yFnSdP4gCVSfx5hQGAcL8CMT+EhTiKKUKZFUKDWiyG8owIMyvw98r2lhOiipawAEROhsSQn4Kaj+V/YPkdWHTNFtAQ80dOAAFgo8uFdpneAjEx5FmwhddgiqZpl0xcbxEFCDs8Hk+uPBT9+vWrNH78+D25Xf4hQ4bEZ2Vlzfd4PNdax7nAR0ZGdktOTlZOY3m7cdxu928ej+eqs7Xq379/K03TypwVINTujJY1bjTNc64gDKr0uQjzzVst4KK25wLN36ODPqOqDv+PYBvT1Gy96Us9ah2owueCHGkBCAU6qD0IX8T5aBFgQBM3F23dBCaSY9Cah0ndJ1MiKOF8CB4sEwI1GmJa4OJPUykj+DTA6xBwQK9UKawv1nTLpqRh0lJqEPbg6NGjp50UDentoiWa+8O7IGHJMnx3bCfubMUESvyoVMxCdKSiEOg34GSEAVUo6WaEQihxUiQWj3gWzXsnSqSCFhEHh+bDwY0rUL5RW5w8tAdZJw7j6O5diC9XFtt/mI3i1RugWLkKKFOrHlZPG49r+zyP2c93R2yZSmj/dLIZIcG3QPpCiImDNxFTPDMKwoqo8EoqacndoMidGGkhUQyaA790uEVsWr//dghvPv0Jfv1ph8jB6XIgOjYSEZFO3NWvDR4eejPi4hkJwZTW/DK/LXppdu3QdSSPTJbY//AwRy6YVmE7u/yxBMi5sefUqdMmhvDIBYuVUEUYWCp+LvYkShJWwxzOiWZeBWWioP+ClR+BbSIiQv4LQmhEoiMyJ0ZGZvclUMBAHgZKO2ExJ0q0hIpiIFAIESWF+x+o7YL0QcgpRd5nCxYsEL8E2liZKItpoAuKZZEkYGRjzcXRebKmab0K6r6muly99eYrpK+IAgSvx+MxKWXDitvtLu5yuZzvvPPO4ccffzzO6/WWkN+Cru/3er0Ol8tVTdO0/wSDwSfGjRt3gLe32+32eTweFyMLxo0btz+8v3DTwBNPPFE6EAhEbdiwYX/9+vWjDh48eKpkyZIk2vnc6/XeVb169UPDhg3zP/roo1FOp7OMruuZHo/n0KBBg9oGg8GyXq93FvcHg8Hj48ePTwtpEOrdipYVbjbV/34mATQXZ1ns/epNn4utT4PGhZ7LdCbZUQEtzi8LsGgXXAHTLMH9fFunpoBaAPbL9mzjCEJzGaaKn4s4AQBNDHzz5xt9Fv3sdLON5Xtg+RFwsRftBuMpaFag3xtMEwPnJX4Iyj+B4CZLh5HphFaM2ndG4SnQwyWBgIYAgf15HZi01NQgREZGRoVWDMMw+MMolPjP2bNn43xMF48t+xGzDu/G3de5oDmpISBSIiuimaHRDGuMhkH/BEWnLOYHSeJEQbhwaP1POL5rMwy4EFu2Iio0uBZp+3ejeJVrcPLIHui6C86oGGycNQl17+gvDpX71/6AtAO7Ue36uxEZE4W5Lw9E4weHokzN+mEES6bGwKJcNqMrSNFsRi2Y4ZIuiXaQuepOpH59DNWf+RExBzPh8wYQVyIa7n/eLiCBJTLahZJli0HXCUA081vAiLktzp4KfFqggaCCdmHmYAjnmwgGTNWRhSesnBQF9UC1+tEdmgAbghpXpBOn0r3IPJn326li9VK489Hr4Yow+4mIcCL9xCl8NXEpipWKQfESMYgvFYtiJaIRXzIWxUqa3/ElY0RmlN35lFqffY4DmVliYhDHP4YiqjwL4qyofAvCzQKiOVB8BgLKVT1Z0K39KnnS2d72xe/I5xNHRYKAUCij0kqETBkW4FNgj9EKBCq8D4QQieGPYeGTFiDh8S2ajusDwULRIPz3v/9F7dq10aJFCxH/qVOnwAiDq666CnRQPt+ydetWua9LliyZs6v/aZr2l/Pt32qfkJDQUtO0LzweT8X89FlEAULA4/GYSDisDBw48HXDMJp7PJ6Obrebbz/LDMOoz99KMBh8Sdf190V1CzAMsNKECROOud3u2R6Pp7Pb7d7icDg6jR49epvVJcPvPB7PDLfb/QaA/lT4G4axStO0XYFA4FmHw7HeMIwoTdOyNE1rHwgE4nRd9wCgQ5puGMa7mqZ9RQAI4GUAtQHsNgzjaafTuYpOiu3qdEKrWu2VWYFkeFzsg6b6XjQGpipfFmDLRGD5FihHP/ENEHW9DkOcCSE+BPRfkLOliYGPZfoKBC1zBc0QfOgYZh0+OzIdprnCxWPyMDE1GTR3yFuh6TNgcDkQE4MCF8qcIFGvyvxonHRBi/JLXwI6lKOjgBXOX7QPuvhWTF4+QjQIXq83OhwgUIgn8vOj+KM2VjjU+TA0Jv70Mz7bvx33tC/BkF9FgkSzgsp5QEdFCkN8AcxTEqfAUKImM2RMskBKhkYzhNgkNjIp82iGMMmVlC+DtaIyWsHwiU/CzqXfoH63BMWOaKqYRUuhEjVJf0K6pOahGBXN6AiqfHjBdIz7+igqTtuOIdfUwfzPf8G2dXtRokwcjh+ms6SGhq1roGXHOnmO+vjpp58QGxuL+vXrn3lJ6CXPsGsFNMIrMKx6/+6jyMr0we+j121AfYJi2qCWg/sINprfcI0s3OFl0ddrcGD3MfjZzhc0v/1sY4Z0W6Va7XLo1MNcQKyyctEWLJ+/6Zxuu/otqgvo4OeUfGcJECmo8tL7ffFEzF4c8XqxnzwIyhRg+SJwcbciDOTah9EfKzfz08mRlFlBLn1YeGN4oqfwqAYxCyhfhPBES/JQUuYJ8Ua3IoHoc6AYEmUuKqIhmywsFki1c4uu43p/wQAE5vxYunQpGjVqJKyVjz32GOjg3LRp09AUrHwNNWrUKKhLdEY/kydPxpEjRz5JTEy8vyAGGTBgwCO6rr9qA4TT0jwHJ0XD4/GcoZ4kQADQeuzYsR0SEhL4cOudkpLy6YABA5qPGzduOc0PLper5dixYyXHekJCwhAA5VJSUv6ZkJAwX9O0zzwez9vWTBISEjampKTUdbvdJ4PBYA1qGF544QV97969NCtUp0+DpmnDxo4d+wzbuN3uD4PB4Jxx48alqv9v9/v9RxwOR1Wn0/nt6NGjj/bv3/8hp9PZVtf1EQIQandCy6tpYsh+N4XMClxKHMrEIKaE09EBYlgwrQumiYF+TFThc+E+wy/BemkzySvIXCEOg2ZTs42lVbBMEKE5maBCzAc0cYi/g6ndEHMDj3G/aK2VWSGSzK5MNKfaytqlzBisqYACtSWTl76DA8fExBATuqgjRoz4tE6dOt06depUEL+zUB87duwAbePnAxCe+nk5puzZhu7touFw0lGRaZnNdM/MrSBmBfFBMB20uC0pmuWJ6lXRBtGS6MnM0GjGDZ1mYaS5QBEdMVKBAIIRDnz7D5gJnQwmjOMxCYGkYwnzPdDLlGmh2YZqoigz0ROvHs0NokVgEilqFBR3g+7KlSjp1593IPlvn+HgnmM4su8Ejh3OQInScXhu1IOoWb+SaBnKVznj7SnbtSKldU4TQ4FezMukM/pu0JeDH1+WT74r1Sgj2heW9OOncOLoSZw4koGdWw7Am+kXcNSqYx20WfUDjvt82O9UhEhhUQhigwvTIjAfgsWWGOIhCAuLDPkCEJSpnAtWbgQrfJLtJfESoxisKAiOoYCBPBOUFkJCLFVfFglTqE14/oXwsEwCCuXYuMnlKjAnxZxhjr///jtee+01AQnVq1cXoBpefv75Z6SmpsobjdvtFiDx5JNP4pFHHgHTlG/fvh29e/fGr7/+in79+oWazpo1CzfffLNoIwhCWDZu3Ch9paWloUqVKihevPi0tWvX/sswjOkAmBGOC9NrHo/n5MCBAzsYhvGpPDKDwYeOHz8+u1SpUiP8fv8PmqbV1nX974ZhTE5JSenrdrvpGNcHQHEA2w3D+BcXHMMw6NTzGbN2Z2ZmtoiOjr7J4/FMNB8jhuZ2u79KSUkhuQyKqAbhTwGC2+0m0+UHABp6vd6S1Bb069evu8vlyhg7diw5eHhf/GQYxpcpKSn/x7s+ISFhlMvlesbv99PcUwXAco/HUz8hIWFpSkpKa+smcbvdosHo27dva5fLdZfH42EkBPtb5/F4GoY7TyYkJDQ1DKPeuHHjzMQ1Zr1PHQ7HcwIQaGKo0tFU/3PR5MLNSABGNNDcEMWQZKrrxYsZWgzDH/mSacjbucY3eks7oEwUEgVhtadGwVLrUzPBZSGHiUHe6KMDpnaBizffOwlGZOE3HR5lTM6LJ0ATA80K/If7nZamgpEPykQhvglKwyAUWVzvlKbDmjP7CGqYtHiUAITY2NjTAIFESRUrVuzcvXv3Al0Gtm3bhhkzZpwXQPjripWYtGsb7m/ngh4RY5oOSKfM8ENKjwyFjGJQi7i81dPEIG/ydDaJN9kWFUOiUCCT94AaBUnj7AeYxInbsvA7zTBFJlqyxpExabKwIiesNiZbogAV9h9iTiTVbZbEtwpLo/Aj+MRPYtyMgyjucmFX93vOkDWBxPHDGbKI7dt1FM/e78HRQ+mIKRaJUuXiER0TgWET+6Bus2pntLUBgikS8vN36dIlN3X0n97bFT+Zjgy/P5SLwfINCLEaEliqN3fLiVFwaC5qfSuU0eImsFgVJWSSpgSaFWgiiIgwIw8YhaD8FEJpnlUmSFmMuNgHg3AyQsGKViAhktqWaAdlyhC2R5oblOmB2wXpg5AbD8Lx48cxd+5ckNGTLJb0Q2BZsWIFvvnmG74hClCeMGGCONIOHz5cwARp2B0OB+Li4vDMM8/IfhZqKV566SX8+9//xhtvvIFnn31WQAH3/fWvf5U63F+mTJmfNm/e3MwwjC6GYWwA0EPX9ahgMLhH1/X/CwQCN5HBzjCM2ZqmddQ07R/BYDAyGAx6HA7HYcMw7tE0rYPP5+sfEREx0DAMqq9vcTgcRwKBwGEAzzkcjk8CgYA/MjJyf1ZWFp3yKqjFZSSAMh6P50EbIGT/eYVrEPr161dn/Pjxm/r379/G4XBU93g8HyQkJPwrGAz+kJqaOlfJckUwGHx03Lhxq9X/5ELghy71lQCs9ng89yYkJJzMyMio9MEHHxx1u90TCOqowRgwYEAvTdOuVgCDC/9YWmw9Hs+j1DTs2bPnzaysrNejoqJu4Pgc4+GHH46PiYl51el0vm2ZGFrWuEF8A+Tt27LNi4lAcREw5DCgwh+5WDMU0lrsrW0+HCyzgvInkBWeZoUQlwHV/Vz4lW8DIw/op0CfBeE8MF8OoAfDQhENASdi6qDjI7c5V6nPKAZTcyHA46SKVqBmgf1yTgQPAUZDKc0HwQF9KzgmnS8znJi8IlkAAoDYcA3C7GrVqnW6+4LLcuwAACAASURBVO67//QhmpcKmzZtAn0QzkeDQIAwccdW9LippDgXCqSSNMuWWUG2VOIkColv+UofwxwMfpI+WEmeTM57UdFIcib2RXZF+jJYpgiaFSxGRXIbkOSCQELpgVT+B/GD4EgCRuicSEWCClnjP9JOaSokLJPHghg34whKuFzYmQtAOJts1/74G1Yu3IoTRzNQ79pq6HjvmWHCNkCA+GEwidCtt96aryiGslM+IYeqRDFYUQWh+0K91XPRzc3d00raxEXcck4URkQBiSbHRnjipvBogxCtc84bICwXhJgawpNAWWaFMFNCeFgmuwonV9oK4LogCsQH4Y+Ikkiv/tZbb6FWrVriWPjyyy+Lb0zNmjXl7PhMYM6QzZs3i0Pt9ddfHzprZoikFoxRKAQV69evR1JSEl555RU8//zzZHwVfgsyOLLw/xMnTmDHjh2GpmlvyjlrWrRhGNQEDANA5rdpaoCKhmH4dV1PDwaDrpSUFDf3Dxw4sIdhGBM9Hk9UQkLCIE3T3JZnPdXZAOp6PJ6Q06JalLZ7PJ4X6TXv9XqvnzBhwr6iChASEhJmaZpGVjKaqX2GYRx0OBwdA4HAEO73eDxdExISXtI07UkAGYZhtE9JSdk0YMCA9rquk9r4nczMzDeioqI2VqxYsdywYcPEfpuQkEDfkqyUlJSRbrd7GYBBHo9nxcCBA+8OBoP/p2laVU3Tkg3D6OHxeOoShDgcjuWaps0+evRoz7i4uOJOp/N5TdMGG4axUtf1fxuGwaSE96SkpExRIGSgpmlVdF2fJACh5m1mmKNGhmv+fsxIAPEfoI8AfRHECVFFMUklE0eIwp72fxVJIP4HPGgqCswFmv0CWHNsBxrH1wiZFcQyIW//dHBXIYdWwIIMpWj4wiMqCGBkHqZ2Ye7+VagYWQoNSlQxORPoXEkQobQPodyGnCvNDQQ3PMZ6BAfC8xDEB0vewf7je+hHFBcOEOZcddVVN99xxx15Wf//tO66devw3XffnTdAePe3zeh5YwwcTjoqRpu04nyrp+aAfgmSFMlS5fOEXSahkjfN9DOQq8rFWvkZ0BQgaZwtE4GiWya4kH5NEGJGK6iYN5WcScwXNGlYpE2SC0KleKaWQDxKzDBM84Gl/BRU6CWZFEtERGDnvWboZEEVqmP5YI1UnP0F1e/l1I+VIyC/AKHkx1MRMIxQumeeuzj65RKWKIBAKphsi6LuV6GLFouhxYUQSvxE9b+VZ4F5Gqw2yqxgapwIcM1Mj+EOkOG5GdgHNQfZEkoRQISFW+YEIJsiItA2q2DSPecECIsXLxaHxIoVTd8+mhRoCqB24H//+x8yMjLQtm1bVKpUSeox6yg1AnwhIeulVTZs2CC5W3iM7d58U9Z8vPrqq7Jv5syZ0pcVyksNQlZWlnfnzp1U7XEBWOlwOH4cM2bM7263m7bovwaDwf9qmrb25MmTSyZPnnxi4MCB7wSDwZIpKSmi4lAAYazH4ylBgKDr+kO0m6sFxB8IBOqmpqYyFloKCYBKliz5u2EYpGelSny8dawomhgK4vnQv3//6g6HY3Nu0RAF0f+f9RGKYqh7K1pWvUne9DUxEVDdT8I704FPKA+iFBeCeluX8EEWLrRsQxOBUtdLaKMABSHVNR0ODQ3vb/gBveq0EZObaCDElKFMDpYzpOXjYGkHaIqw+qXpgG/9fEGlFsIVxN9//hhNSlbDA5XbKROFCmO0zBLis2CugzKmpR2xzByRpo/V5EVjsP/47wT1xSyAoI0YMWJerVq1bqBqtiDLL7/8goULF543QBj/2xb07MBIA0bK0JPzuJl0iX4CjFyQxT5CsioK/0FEcRjeY+Zbv+YSYUg4ojPGNANwsXbFm9vCcBhlsiSSilkudjGzX2oSrDwNrCttsqSNFlHCZFFke2Fu5I1DVkWlSRDzBW1I9EfwmXVdxYUoqWREBHYUMEAoyOt2ufZFp1iG2uUXIMR/JC8WJg8CF1suwjkTL4URJ4W/0VsmAgELZEgMy8ooyZ4YbaAIjSQrY3jOBAIEFS0hWRlVQijJ86DYFrO1CTcr0E9CZYIUs4Kui+mCWgxrLnx92eR0oa03bwBh2697cXX9Mx36cwIEmgP+/ve/h1KsZ2ZmomfPnsJomZWVJf4GMTE0wxmyj5qFzz//XBwcwwECZUIT0aJFi8Q/4brrrhM5UVNALSTb08RArQG3OW7dunW/WLdu3Z2aph03DCNd0zRfRkZG08jISMPpdB4DwA/3bxw7dmwnBRAqpqSk3BsGEDp6PJ6BBAgAhmualubxeMq43W7D7/fXHT9+/Mbw30RCQkJ3TdM+Yax4ePY/CyBMqkeq5aLBpEi53IgXnNuxw7kdE8wsenksBF2lS5duMGbMmJV5bFog1cPDHFvVvMFcRE9S3a/MCicVE2Ixv6lFoFqeC6ps0x9AhULSrEDfADoyMgqBCzIXfoILrrZ84890YPTW2Xis/i2nwx9jqM1WoZTWIk4QQP8DmghoLqDTorWtSJNOsyAaeHLRJDSPr4leDa83zQ8kRGIb9ifjGwDnnMmXV2VWoAaEcyYI4sp6yokPfh6J/cd+h9/vj1cvQIaWnJy8sG7dum35YC3IQuelL7/8EoMG8XeXv0ITQ+q2LXjo1jJwSpY9k86YiY9MtT9REdX3pk6GXAd8wze4uKs3eHNkqofozEG7jqJFFgBhpnAWsMCQSS7oalu0EzD590VzoJJDCTiRiAgzsZMAAQIEOS4QUM0nTPvANkE/Ur8+jFIREdhuA4T83RB/0IoLFymAzxcgHOSPSTn4nRF5YN5UpuOpYkS0TAQmUZbJh2DlbSCIkHwh1iKunA0tnwFrnPDTCpEgWWYFq01YcqZQ+ujwUEqVnEnmx7lQI6HyNGyMiDhruuesUz58NHIetm/Yh4wTmVg2Zz3Sjp0Cw07fW/ocSlfInok1NxMD866sWrVKyLrq1q2bLdyWYY/UJjKygSYCOjHSn4D7y5Vj+PrpQhPFrl27EB79sGXLFjFZsLAPjsPxlixZQv+FaUOGDLlv4MCBNwcCgcq6rv/o8Xjoi0BQEZmZmXmHYRgR9EEgx7/b7aaDG+mBqQEA315TU1OFhGTQoEGVA4HArQ6HY/6YMWO2JyQkdI6KilqSnJycLcIrISFhEVXWloOdNfuiBBCaoX91wPWsAaO5BrQygJRfMFbMNpdbCQGEmp3RqtYN5sLPRZ8Pfh+dFU06ZVlyqCEwV04zgoDqeglU07DXewR/WTIZ3a5qjq/3rESXcs2xJn07OlVoimJRkUhY5MGrTXph5Nav0atme7SNr49P9i7GMX866hWrii92/4Qn6tyGcZvnon5sdVQvVRKdylwr+5cf3ob6JavgeCADLctejX8sn4LB19yG19d9gacb3oGF+zagdenaopkwyIGgWBVPW8bpB0eziUW8ZIIYATeWicFJE8Mo0SBkZGQUl9OkA0epUqUWN2rUqDVV1JdaIUAYt3UzHr61DFw6kRYREPUiFpelAgZc5LkIixbAjDeRE5SMjlT90FxAB0SaCKhp4DHGkFPFQ98GPlTNJExmj6bK1lDmBomOYP4HpnXmGOKLQDCRpcbhjUQeBDNTpJnAybQR0U9BuBAMA6mz0m2AUEg32Z49ewQgMBonP0yKlgbhoEr3LOYDy1FQJVGyqJMlUZKKPAjnRRC1oQIXYmKwEjeFhUVmC5GU8CiThtkySchtq8wPAjQsimXORW5N2khNBaB5j56OVpD5KmAhjIoq8kFyMfgCGBRdEbdrxWWh/XDEd/h53iZ54NW9thrKVS6BqJgIDPhHV9RsQL+w3MuRI0eEGKldu3aiBbhY5fPPP/955cqVbYcNG1Zw8a5/cjJut5sJa7p6PJ4zHLYIEHSVi+FK0yA07znadQy12mnQrgb01wygpA7MMYAfV2LsPy/WPVAQ49J/wel0Cg9Cy0odocUqTQFt+RKVYLIfihOgUN+o355l4ydoiAjizVUzsfbYDvSq2xZebxCf7f4Ro68fgE6z/oOAEcB3Xf4l/T3w3XB83P5J8WVoM+Of+Pe1PcT88NGvy9C//o1Yd2wX+tW8yTQFRAYxd89adCzVGJnOTHSe9Qp6VGmLx5vcLHNJ/XUBdqQfwjF/BlpXvAoPV+ugkjEpfwnFAilzlpxFitZZkUCJ/CziJb+GyctGiQYBQImQD8Lo0aOndOjQ4f5cY+gL4gqcRx8ECClbtqDXjQ64ImPNB6OwJUaZpgXxJ4iCFhkPI/OQCQ7ELMAIA5VsSUwBXiCiJBDMNEMhI4qZgIHhj3zjj4gHmNyJV5BgQ6Ia/KYpgeYGmhWiy5khluRgiCptahFk/AjzTY1Ag9wJkoqakQ9me0ZECB10ZCmM++oASkdG4Ld7CtYH4TxEfMU0pcZq+vTp5w0QrGRNwnZo+QlYhEhh/ANWWmVR5fvofwKJSpAMjUzcpNrzWIC+IYrtkIRI1BxI4iaVbEnIkZRZgNsECByfi70QIimzRLhvgbRnG00TswLBAT+yrUiTpC/DAH0Qbvr1MKr+a/kZcd4CNEIMndlvh3sHtsffRpkRCfIs8QWwYeVO9G37OsihkbOQNEsj2ZNDR/FSsfjwl79LyG546dvudezfdUS4Plhfd+jmNonA+L/a//Sb9wv3RniZO20Fpo75Xurs3LRv1e/bj+wi9Y4BnY/AAPPvmam2jKWr4RmRc35NMHCYDpS03MlyfjMXH7Nu6DDeWA4PnRRDpREGXl+2ZnDI4a3aYh0amT6CujCEOOlDHtw7tFHHk63L9qGJoe4VZGLQx69Hia93mc5V2YtabXJ9hGwFjPcZ98P3cPOBzPdxjeGkZxArmT2IWo4e374AjEcAbTcNygaCfga3B+H4mwa9jpkuyfCSKgjQvEzLRwqiIDTZ74d3xBpMEC2SVZqhb1kg4kH69PNBzV8Mbc3MnViqirNchcZBT9cbO6F1vfampiCDYe5MvOQVhkF511MJlWTh5jYd/azIA83Amz/Pxqqj2/FuJ7eo7mli4ALf+fNXsfvkEfzc/SVEB6LRde5/8XWXv0r7JtOew8ruryjTuQO/pG/FiDWz8W6rwSaZUmQAc7dswM1VGuCk4xQ6fvYfDGx4E+6s1hxlHMUx4teZWHN4N0pGx6BR7FXo3eB6MyKBzIk0RZADgSYKCoKmBGpHvE7TtyI0f79p7vDp+HDFSOw7mgMgGIZBujOG7FxyhQDBs3kzet8SB6fYcVVEgUQyKMIi0ixzoRZNAB0wVKxHmLOgaQpgdAL9ClzmR6iRycoYK5wFbC8RESbLhemzEPCajpCuOMB30tQMiC+DinSQ+17orEzZmSTcpjaB9UiSFMgUzQOfzONmHEKZyEhsu6dgI0bGjx+PqlWrinq9qJbDhw+DnvD333//Garrc5GJpUE4pJm5FULFinCxvlXKZwllVGaF0Ju8evsXs4KiWbY4DLig7/juR1S5uTU2pE5H7Qe7wFWM957SCChNwql9h6C5nIgsU9IEEWHhj/IYzWlWoP+Cmku4uUO0EOzb4ZBkTe33ZeDqIUtwTZMq2LpuDypUK4mWHeviZFqmfDLSskLfvFebtK2JljfVwZ19TkcadKn2PPbvOvqn4ixTMV7GeeXDAShWwrTH/1/C+/jm459xMu3PqfbJlvl/Ex7FDXc3kbaH953AG09OwS+Ltgqx158VA8acX+AJ/RgaY8BVOvRkDZpwFvxZCcLovAqeb04vMO5fAe1PU1cGykTi5Tn9UOcKAggZm4+iyvM/bdOAq+X+Q/BbDdpGwKBKlu/RtPG6NPObeQ4ZGsaHLPOOu8jVZ9YVQl86lFJ16yRhMI9zv5mxgPsNp5k+yBCPcpXm6M8uV7bjBozXfoHn2bBr9x6g5Zo0KmfHH372b9Pxz/IzsHgLaG9Q2gPxLVBmBYlc4KOCyRiDAUzauQCfbV2BWnEV8Ob1vbDl2H7sPHEEDcpUxlvrv8Lz13THy5s+wUmvF680fwi70g/jn6s+FMD7l7p3oXxsPPouHI3vOr9g+s55dXx3YK0AhLTMTEz+bRHuqN4Mb/76FXalH0HHCg2w7sQuNC9RE/HOWHS/uoWZQ4LaDskBoUIpCTbYnyR+UuYSFbkgy6jfpH/+cNko7Du+m6bCkiENgmEY9Phl9q1LrhAgjN20Gb07lYBLLozJACVrsZgVmI+BDoXmMfEtF1ZEh7AtWhEJ4kDIQnW/cCEQ1Jq+BVT/ywXnA1VMDyqKQZweSYIUEzJdWP4HVm4DAQIcj74K5EKwCp0jJdc3/R5IfmPeVONmHi8UgGCHOZ7/rRtyUuRbsGKBlLvN2g6PQlCRByEWRS7QNAWELfZQ/gdyryq/hJ0zF6JqpzZYmPQKmv/NjbjypUPJlawFff37Xwo4uLpLu9PsidKJonwNY3+Rd2WV6TE8uZQwP1q+CAC26A608fnxdLWaqDR3H3ZtPYg1S37Djk37UbVWWTyU1BGly8ej9a31Qgv6+Us0ew++LD++/2o1TqaTBTNLvs3tTJzM8EqCMhZqH15IfSRb4wO/H8Oof34hphGrbFi+c9GWtXtIx8vEMpEGjDiF0A+uhKdneAeN8NjVThj/Ots5mRZlIz0IHI2Ea/iPeIccCKHSGL1jHYgoYyBw/BdkpAFnpjG2TAyT69VFnRi+EFz+JZxJsSkG3aghOBDQ7gOMlYCRHIVjnyzBVJU69/I834EDB9Ymh0a7Op30llVuMsMb6RCoQhhluVHhhsJSKOGPCu6oLIkCFNS2OAaKFdykR7ZIl0JJlaxVzHRZOk2Hr0IPTV4FlfNBohvCQhJlnSJ7qhkhYYZjWlZ1k9zJCpU0/SUUTwIvjUWWxPNR1MySTdI60YCGD356B/uO/U7fnlLhAIHsU/8u6MtLD2Yypd1++zmB9jOGZ8jZX5avQOqWrXiwA7n5mfiIgs8EnHEme2HWEeVnoDIp8mpyQRdWw0CYiYAmhnjTO4FmBSuhE9/uJRMjOar9JvwQcqV0U7sQVR6G94hpYogsC/jTTY0AORZEU0ACJL4FUlNAMiWTVZH1BYQ4oqCxHttElMB7s00NwtZ77s41nj6/18AGCPmV3Ol2BAh8zdmjAILFnBhOlCTmgnATAe8nFe3AelYSJ277qIL3+UnjB1BTwLonT0GPjsKix/8PzZ7tj5jqleHL8sLh9cEVEwWvpmHNKyko36IByt7UGq4IM5JC/ByshFAKEEj+BkY0UKVPs0KYiYJjSRSG8pPYTCZFrx//btoEiXWzZ7r8dspyvJb0MU5lmAs3H1rPDH8Adz3aBrHFmCjsTNlyoZa8IBexpKWlDZw1a9aEBx544IL5IPzR6RIgOHQtedIVChDCz70p3OM14AFAiw3C+EtJbBo+H/OVl/ZFvCnyMXQIINTupLeqdhPAqAIuoFx46fmfJclZADIcWuRCKiujRBJwQedvhNECtPHzzZ1REAxrpP/CKUWupHwbhBlRSJOsXAjmy62YBTgeF/50lxnWyMyM3OYYzBbJuZCoSUwEXMucpo8Ee6B2gP1KtANfcg3TFMJzUUyQss0P9zOJk+WAyfMKaCETQyAQKB0OEP4H4Kl8yPYPm9AeTLtwfomS7p3/PRYePICswB+Zugp61oXfn0vXsajzrahXnKyuBVNsgHD+ciRAoL/+FsfpFVFU9GYaTfEzyKbuV+p7UURxEQ+LVqDKf9kLI1GxZUMcWLMZEVERaJzUG6tGf4TGgx/Gwif+jWbP9MWBFetx6sBhxJQugYDPh7LtmmPdW+8hrlpFlGhYC9Vvvs7UBNAHghoJpRUIsSXSXh/GoshteViERz7oOjZpGtoGDPy3WVM8Xie7Xd+SHPNckPab1NOj/vGFZBr9esd/xHExvNCUQyIjOjVXqCCkgheljB49mtEMqUlJSQMuygRyDGoBBGoQrgnTICyfn4Kqta7HDzNexV39U03KeFUO7d2AhV+8jFLlaqFDt39ixoTHoDtdqNeiO66qd6bT+NfvD0HWyWNo3vExVKvdBhtWfIH1P01F7Sa3o+F1D2L2B0/K9qpFE4Vh9tYHX0dssTIy2o9zRqLVLYOxde03WP3D+7i6wa1o0u4RzJj4OBq0uh8rvx+P+NLVcPN9zGUkVNLotHotjvj9SOvZ4wyY2BSPltDgamFAn2zA6L4KZmTI5Vb69+9fy+FwbGhXo4ujVb12ZkggF1FJu6wiF6gVoG3fimKwEiTJG7riOSBKYIijJFRSRhOCAGFYNBkSQxwE0pcJsCWKgAs4tQ2sQxBgbYftF0DgI/Bg+KLJkCj1rPa0LLgCZl8MZRQQQxChEj+FQIRyuqRvhaSDtvI/GPhQNAi7kZmZWSYUxVC6dOmfGjdufO0NN9xQoNdWJVPJN0CYsHUrUjZvxZpjxzCgVk1wYb0Uijh0KY8dM1KC/6t0zMoNwdwjWRrEbCGWC03DuM1b8FrzZuhe7Uy65PM5NxsgnI/0zLYECBUMA2sIECyzgpVRkQBApW8OmRXUYi1hjTm22d/3Q15Gs6f7oliNSlj/7qeofGMrbPt0DpoN7Y0FSa+g6TP9sGbEZLR9JQlwubBu3DQ07HcPVvxvAuo8eg9iypr5N0JRDiq8UsYLSwJl+ULkNCuIaURFO6wPGuhgAK83b4aBtZnILv/FCnMkb4oVfpj/3vLXkovXyJEjuYhNS0pKYr6Ei14EIDi05A/q1UXt6NMmhjlTnkNsfDnExJXB3h0rkJF2EHt/+xn9/7kE08c8jM4Pv4U9v/2M6LhS+GHG6+iWMAGrfngPWSePo/1df4M3M8P0gQ4GsHHFF2jWoS+WfTMCZSs3wPqfp+P2PqMw/9MXUe2atvh2ynOo2+wuNOvQD1mZafjyXTcGvfQL/L5MpLzYEp16/g8ELPe4J2Lhl/9BmUr1seDTYajdpCua3zgAEVHFULy0+WyiBuy2NWtx7CwA4aILvIAmoADC+nbXdHK2uuoGlXUp9Ag4zbWnmBBPUyCa9gFR8Vt+CdQ0qOe9hBiG8h6cdugNM5KbjxLJqKjAiGgk1AKukjBZJg552xefB3IwmCH0ws1IMCDsr8rllnKxohWsxE98jhCoUDvB+tRiWICH9VX7D5aOFoAAoKwFEEhSsbtRo0Zlb7zxxgISudnNxP9v7zvgo6j2tp+ZbWl0pPciXRGkgyiCINguKL2DgEI2YL336n3R673v+3mtEBErKEgLCHZRFFQudpEmRUSpgiDNJKTt7ny/58ycdTcETbKb7GZzjr+YZfe0eWay88y/PP+XXxaiJsW1IHCO9ceO4clde7C69xWwWwV3wrrJGJlMEQSwsh+WLVsmdDeo71/URoLQ0G7HV4wrCUhxZCaAyCjg36B8WpdpjrJAkxUQKOs38El+w/R/4dJ7JqFyg1o48vk2JNWvjYOvvod2d07AxtsfQoe7J2D7U0vR6T93irm3PLIQl/19Crb977NoM30kbBWTznMrCEEmuhX4ncSMCloKrCwK3kVkWqY/ldLKwthit6NfnhdPXN4Rk5qZssfFbZIg0HXYpImIWyv15vF4QAuCpmnLk5OTg+INSn0z1oIkCHabnrqkVYsggrDh1X/gqiEPiV7HD+9AjXptkXpvC3S8cgoy04+j39CHxWee3CwseWwgxv1tg/j3kkevRYMWvfDjjnXC6jAs5TWsX3Ufzvy6X5CIdSvuwbmMk0g/dQQ2hxNtuwzH5+89iRGz3kS1WiYJXPLYIPQYdI+Y+8D3GwVROHvyINJPHYbN4UKLy27ANxuew823L0OthsES7lk+HwZt34GzHm+BFoRI4RzudadMmcI/iN09W/ezd27QW4RMmmWZaaK3yirTiyDEkWiKZ+qjFWcQ4GLgk7+40fMmTI0B8nO6JZg5QF8/zf8cb1WFNF0ENvNJnw/9zDbga47PtNwNtBYIV4AlbuS3SFjlorm+0GiwAhBFqKcp4uSXiWYAIokLMxoowCRjLIQ6pLUvkp88Hcu/ehpHTx+mZa6GIAhpaWnOY8eO/dKuXbvK0UgQwn0xxOp8JAjUux84cGCsHuKfHhcFdl577TVRGZB6/0VtJAhtNWADmbnlLhAFlaybsL8qo0U+hFuBnwW6GKwbNxURP779ITgrJMDnMevCd/1nMnYvfxetJg7Gf2f8Gx3vmYCzv5zEj8veQc2OrVGjRwckNaqLLf95Ecxk6Pb4vab7IGAvsqCTdCvw3yQKbP44hQBrhxz/ja5jgMeH1E6XY1zT0G7qhw8fxpo1a3D99dcHCRoVFe9Q+lOt8fnnn+cUi9xuN2svRLxJgrC0VQs0C7AgfPzaP9H7puD4SBKE0Xe+i1fnjxSE4KsP58HuiMPOL1dh3N/WY+/Wd/HNR89hxEwWkjRN1rQg7Nv+PjRdw3dfrESNem1wZN+XuGHSC9i7bS3adL4Z7y6Zic5XT/cThOxzZ7DyqaGIT6yKIbctwTcfv4Aftr2LwVNfEa6GVpcPxocr/y5cDPkJQrrXi+u3fwf+LsjFEHHAw7SB2267rYmoxdB4gKNzy15iViGzzBgC3niZ0cBTIFwEAa95c+b7vKHTXM8geT65WxUXBSHgGKGKaM3FMVbmg3AliJwPEgomhFivpYuB4ynUxJgDq1iUkWXFNrCIU47dlHIWBZmsei9OxiaYKYt+/QauT+JhVZUU/emJFIGOXJNuCTOLYfmX8wVB0HW9prjq5s6d62IWUbt27RIVQQjTFReBab766it06tQpAitHz5KSIEyYMEFUByxqI0HorAFv6WYWg6i8aIkN5XcrBJrzpYuB6wXKL2+c9f/Q4e6JSKxTw3xfxgUwaDEgfsEfQyAFky6UrRBY9CkgrVF8oQW4HIQ6o3lHEb/4h/7fuDjclJWDpzt3wugmjYsKTVB/WcadtRQahNlVVtiNZWRkYOHChez+vNvtjgoFPxIEp01PXda6JRrHmQHVbAe//y8aXNwz6NC+XJeKzv2S8evRPeJGbbM50b7XiTQQ4QAAIABJREFUWLz0f32Ee4BP+u17joUrPjhOaeumxeBNv0u/ZDHfns2v48zJg4IAXNJ9FDLO/gKbzY74pGr+9fbv/kjEOFSsyqrJwPdb3sbpEz8iLqEyLu0xBrnZ6cjNyURSpeB4ktMeD27asZMEwZMxYphVyrawZ6js9JswYUITh8Oxu2fz/o5OdDHwCZsBftKEL/+KAlx2Vskd06xviRBZ+nzi34ezfkX9ilVNsV/hZjYLNYm0AzZZeInjRaEmywUhRYtEDYV8/UT6ooWrVKXQDfyWnYUEmwt2l1UfhgGHVg0IIQXNOhHMhODc/GoIDOmzajXIeIvlX5gEwefz1QokCOnt2rVzKIJQdi5qtdPzEZAEYfLkyYgPeIIrLFYkCD0T4rE6J1s8lXusgkj+aosyBiCgKJK80YvgwAC3BMfQfdBszA1IrJBg1mIgAeDTviWOJEgIBZUC1BqlQqO/0BOzBQKzGKzXgfUXRJoja0bkc3eIwEaLJGy02TA4z4vnunbB8EYNCwtJgf327duHd955R9RUoPZGJNqZM2ewePFiLv2U2+0275YRbknLVrjjdG3OitatUL8YRdO8nhy88sgAv4shwoeDE3l5GLxjJ855fWfSRw4zA2JisE2ePLmxruu7e7bs5+zU4CrzaZ2mfGERMJUGzSqOVlllWhH4dC8sDZZbwTLRm8qLPvxl3WNYc9VdZoEmWdBJFl4SColWMDEtAnRjcHyWTWRNCCsEzf9slltCEAq5L7m+WNOG2VvTMKZVDzRPqG26IjheSHfpaPvanfjuL4+axISWCrpBeOe3KkEKi4h4zXLPTizfmhpMEBYuXBiXnp6e1a5dO4SbILDKG/3C4a4SGYPXqDqkMCAgCcKtt94qKgYWtZEgDNQ1LPbkmaqE9O1bWQHCkhAgeSxfy9LOzHDgGFH9UWY7UOGQVogAVUP+dYo0SVos5Zh8wktSHIl9/WqNTGXMp7Yo5yIJyE8ihEVB1mPQdWyw2TA014MXu3XFLQ1DC5CVZdwHDx6MunXrFhXmsPRnJgULOxmG8e+UlJT7wzJpiJMkLlsxK0HXH1/ZuhXquIIzPwo3tSEsAPmf5As3Nvy9jubm4ubvdiHL5zuUMWJYaBdN+LcXthlJEDRN292rybVOM4vBylzgPZqmfOEW4B+smTkg3AU007MgEt0FfC3SB63MASFwZDPjESzi4HcxUGGRN2SRisiqw5aL4JzlLnBxPQo1mSRC2BU4RggdwSwCJVIZvaZbgpYOpkLSCsEgRr4vNEV1wOVB21X3YMd1T/ye3SBjIURBKavQFI/rN5eIUVj+DWMQDrGaY21hQShJghC2M6gmUggUAgFJEKZOnQqnJU1ciGH+LiQIN+sa5gu1ESuTQYoNWYWQRMVE8b1h9QlwK4in+oAMA3HTpivASlEUeisBMQsi80E+5Uu3Aue1+pAoBCkkBqQ7MiNGqj3KNYVyY0AqpPnYY66xTrdhVG4eXu7RDX8J8amfgccsoHTppZcWKxi0KOfkj/p++OGHc/v27ZsSrvlCnSdx6Yo7k2z6o6vatEZNZ9m3yB/KycGwnbuR7fPuyhgxvHWo+ETr+GnTpjXy+Xy7ezbr76pbux3+/u1SXOSshDjNiQc63Ix7v12CU9mZqOJIxN1tbsB9W5ahfmJ1HEo/iW41mmPn2cN4vMN4EUMwf9f7mHRxHzy1ey3ubDsI//fdGvxw6gScdhseuWwMXv/lC7y3fwd8mg/uVgPQqXozv2jRd+kH8cC3q5DkdCFBi8MTXcfi0Z1v4KdTJ/mVgKcun4xNZ3bh+Z0bkO49h7vb3oDq8Uk4mPErLqvUFJ+f2oMPjm1DnseHPrXb4pPjO/HBkR1ij4NqdcTOrIPYe/oY6idWQ/sqjdG7dmtclFABB389jc2/7cNfmnXEsk3P4eiZgzxVdQRBMAxDW7NmzYbrrruut4NmUNXKJAIsVFSnzoUL7JTJgyripiVBYBZDca5lEoRxuoZHhDqZlUooiyJZqYyBxEGY761YAvr7pawxXwtyYP09CYuARRTkTVyqH4qbeGBxJys74jy3giW3LOs3+ItA/YFbQaxpBVC+q9swxuvDkp7dcX090xcdA22spmnCzxANLXHpinsq2m0Pr27TCtVi4Lv0J5bt3rkbeYbvq/QRwztHA8YlsQeLIOzq2apfXMWqzfH64a8wpE43NKlYE2sOfw6P4UX3Sq1w0PsLsr15ePCrNfho0P8Idz4DCPu+9xDe6H8XPB4fJm18Fiv6puCOLxdhRKMeeOCbV7G2/1+Rk+eDz5GHAe8+jLRes3DU+BXTPl6Az/r/r+lusBnYd+oE7v9mBZb2nS6UEj84uh3L932GBy+7Be8c+RbLftyE2q4quP/SIWhVrTaW/rgJZ7IzEe9wYECDS/Hyno24/KIm6FKzCZL0RBxIP4FB6x7Gjusfx6ojn+KzY3vxWNcxIsXxcN4JMfedzW7CXdsX4r6ON6GKUckKUjzEcs91A4WS1gLoXxLgqzlLHoFdu3YJxcrRo0ejSpWYdRX+KZCSIBQ3rZYE4TZdxz9ZTtyKE+CNWiopBioZ8n0RP8CUQ7oCLHcBCyc5mPlguSiYBSHm4g2DxZo4xsqCkDLJkjRInQWRORGgkCgKMtntsGVnm8WZ7HaxNgmJcFdY8wZWbxSWDl2HIydHzPWWpmGix4flvXpiYN2YIZIjNU1b9qcXRil1qLB0+V8r2u3/t6Zta1S23EiltHSJLLM3Kwujd+1BnmGszxgx7OoSWSQKJmXJbyGU1Lx/XKeLeyLTk417Pl+OqvYKOJR9AjvPHEHzCrXQoWYjjKvXB7d+PR+vXXOHmTng0/FFxi4k2uKw7sh21HNVxy1NusL96UsYcvHl2PjzHtx/8VBBAjK1c+i8+n/QMPEitK1WFzfU6oIetS82XQk5NlH2a8KnT+Pl3reLwMUPz2zBPZ8uQ9OkmuhYvQlGt+6OOza9grTeswCnByt3f43jmRlITLShf43LUN1VEQc8RzFq/dNY2m0msp3nMPSDudgx8AmsOvFffHFsHx65ZBy0OBaJMzBo7X/QILE6TuamI637nSJQcvmXzwgLgq7r9RRBiIKLMxxb2LBhA3bs2IHiBueFYw+xMAcJwp02HX+lNLZlOaD5njd96T6QwkOB7oPALAS/NoGlcEhchFuBJMKq3ugXPrKyD4S1wlJrFOMDsxW4NmMhZHCjLO3MfVn9/G4FvyS7tV9Z7VHX8ZqmYWqeF6uu6IVr6tSOhdPFYxiqadrKaDmYpKXL76vicPzr9batkVQMHY5oOQ65j93nzmHMrj2sQ/RGxohh4a0uF0UHO2XKFMZX7O7ZdED8RbVa4und7yPDm4Xa8ZWR0vx6TN/8HOo5L4LdoWF226GYs+dt3Nn6ejMTwW4gw3sOA9//f+hSuQUe7TZSBAre8dViPHjZzRj60ZNoV60eTmZm4tGOY5GyeQFqxlWGzbAhueUA1K1cycyasOokjNs0Dy93SRYWhWNZp9HnvYdwY8OOojbgwx1H4+UfPsYHv2wVRZ0ax9WC7jBQ11Udnas2F1aCI+dO49Pje/BMt8kiLuLmTx7DhOZX4oqarfDglpV455q/mUbQHJs4xh7v3Y9N1/4LSXaXSRA+fRZHzx5kFkP9EicIW7duxYkTJ9C3b98ouhxibytvvvkm9u/fjxkzZgi1RtWKh4AgCFUq497034TrQMosB97QZVaACAKUfaTaoscTXJbZuoELCwFJgNyWPEd/oNYoXQzSRSAsAlYapBBxstaUe/SnXUq3glWWWlon0mw2TPf48NqVV6BPGOSRWWfFVYxI/eKdmYJHffzxx//p3bv3XzVRkSbyLWnZin9Us9v/+Ua7NoiPEtXXUFD5LvMcxu3ew2LaSzNGDR8VylzRPNZPEFr2i+/c6EoRDJjjzYPTcP4eaMgAREt7TdTf43+yeKClnijTI80gRz4ZMNvBQJ7XA7uX9RRMcSVfjg6dokuBugoMdvRpyPX64GRdTBFoaGox5Po8cLLQpaWimOcxYNN0vH9kG/b9dhy3t+znz3DweH2w21h7wSYCKD22PNgMu5lu6fBBFxoNDKD04Zk961DFXgHDmnY195Jjw/LN83H01EEKJTXw30l8Pt97mqZdE+6TSCVFr9eLiRMnhntqNV8AAixxTCJWXNO6AtNEgAThf+06Jls3fpl+KKwINOvn5Zlmfcu/TLcC+5BAOLOz4XG5hLXAbrkC/ONlmiJjE2TMANcISF+UhZd447fn5JhZFHY7HNnZYk7OxfX4R3vevJzLqhYp3ArZ2WKPHCfGOxygHd7tNfDWVXyaqBHSKZdpjlOmTIkYSfj222/x3/8K6f8hbrd7dUgHFKbBSctWPHCRwzH7rXZt4IgBou4nCAaezRg5bFqYYIq6aW6//fb6Ho+HLoaEzhf3MsWR8qsaUjnRyhwQdJTFjkgCKDDE19QeICFgdgI/Z4YDCyrx3+lOM86A48+6zAJKNPNnmdlMwsVAoSUSAjGvJlIehQojx2TKYk1ec1824P5vV2D1gS/wt5ZDMOaSLqJokxjv8pjZEYyj4vqci5kXLBTF1xwf58Uv3lO4Ye1j+Hzgv80Mh3SnSLFc8fV8/HxaBCk2DNRBOHv11Ve7WrcOb6AqCQLlKsePHx91F0UsbYjpXkz7UgQhtLNKgvBYvAvjeFO1hIgYMyDM/wE3YeFuCFQ4lERBpiJaksdSDvm8WgmWRUHGHIj4hcAgRMYZWHMFaiYElnOWbg2hrWBZFLgvxi8IciHHW7EIizQdd3m8eLfPVehR46KQgPr444+xbds2FFeQKqTFrcGffPIJaKEE0M/tdn8QjjlDnSNp2YqHajoc97/Trk1MWPJ2ZJ7D+N17+B3+WPrI4XeFik+0jp88eXI96iD0aNI/sUuLXubN2q9qyKqILKFM9UFTvljoDAiFRPMpXWgICHElK/nJquroV0hkKiP7U+fAYaUlCilkq/qjKJZkFk7iTVkUYaK4ERUOuRfe7GUqI/UMAqWUSTy4tijqRP0DUz6ZxEK6EkhghKqDVGvkXEL50ZqX67E5fFjx5bP4+VQAQZBpjr169UL79u3Deg5JEGjyHjs2uLZ7WBdRk4l8cEUQgN27d4NPliNGFE+anwRhTtUqGHH2jBlzwAwF/hFZYkMi5VDe3AOKOIlAQUkarHgFSSJEmqF1jfJvQei7S+VDqasgNRYsS4UUQeJ6dCuIlMqAMaIIU0ATBMQwRFlpmUYpCQy78fULNjv+6vXh/b590LW6Wd2vuI0BsQyMnTRpEhISEoo7TUjjWE1yzx6av32dZ86c+VVIk4VpcIVlK/5dw+n4+7vt2oZpxshOIwmCz+d7MGPUiAciu5uSW33atGl1fT7frh4t+1boXL+PXxY5qKKjkCEwFRaFtgE1B0QWIP/0+T/TpSByoKX+AbUMZBEnUVHRqsLIJ33exC3S4Z+X5n9RuMkUThI3e65nCSxZdZnMsWwUPmJXEg3uSbpB+D7n4X5EWWmrWqMl9+w/LqsKpF/jIdeGFZvnC4Lg9XobBekgUCSJYknhbCQILJrD6HrVSg6BlStX4vjx45g+fXrJLVIGZv7www+xc+fOYltSSBAWOB24zmdlCNDcn5cnbv6CBPAmzDgDuhgMQzyte51OkcIoBI345C/TFK2btUh5LKCgE9+XbgURwMjxlltAuCjsdngDrAhcn0SBP8yCIGmRBaVIF0TmBMcHuCi4L+GucDjwLDTc7/Vhfb+rcXm132V4i3Na165di71796K4glTFWTP/mNdffx0HD4pgqpYzZ87cE445Q52jwpJlj9SIc90VOwQhE+N3fw+vgbsyRw57LFR8onX8lClTGLW7u3vjayp2bX2F6WKQNQ94E+fNnZu3zP/iad1yCwj67zBvznxfuAiki0IKGp11mu4CjqHrgZPxKZ5P9FRr5BgWh5LjaW2gK4DjrToNwoJBsiCtFlbhJTPOgaJLVi2HOIomUWiJLoo801JAosKCTsKKYTeFmjhvoDhTBoWaDD9B0HW9cRBBYCBhq1atwnoOSRCYjz5y5MiwzqsmC0aAcR6Unq0W4hd/Wcf1rbfewk8//RQSQVjkcmJgbo640YpUQlGx1XySF1kIMiNB3tAtEsGbsbhxS1VEy5LAOAMpdhSobRDkVqBCokyLzMkRhINz+dcPTIuU81oxB/nVFkVapUVU/KTFbsdzuXn4h6bjk2v6oX3V0FJhZVBscfUmwnGdrVixQpBir9dbZ9asWUfDMWeocyQtW/50TafztpgjCJo2M3P40Dmh4hOt4ydPnlyTSordG/er3K1Nb0uhEGYRJasqorhZy4qJvNGSlfPp3SqTLG7EdAsIhcUAF0WmQzzFm3EGTIvkDd0Lgy4FuiycfBgJcCtwPCtB0sXBGz/nooFAFISyCjIxfoFjRQ0HVm5ktUaLwPA34xHi88z5WdCJ7gY7XQycyzD3YpETQXroYqC1Id6DFZ8+j5/PHCDxbhJEEAYMGIDmIdaJz38BkCBQ8nbYsGHRem2ofcUQArSkHDt2LDSCUKkCBmRkiABC4RKQKY6yQqJlRfDLKsvURal+KN0RxDWwuEs+t4KMSxCkISD+QMQcyGyFwCJMluSz32VhRcn70y0tF4f43HJLSBVHpkg+qdvxb68XmwZcg3bFqHQZeJmsXr0aR44cwe233x4xJUVZSj4nJyfp7rvvzoyGy7jC0hUv13A5xsYKQdieaVoQfD5jZuao4TFLEKZNm1aDLoauLa6q2r1hXzOQwHQumjfeQNO8/LMWsQfm52b9AwqemZLLgaTBrMJIV4Bl8hduBdM94X9fpDgaMHQzhsCsHGm5CRg9oDEI2XIrWEGQFFIy3QpWdUhRofF3t4KoRklXhNin5f6Q83IM37MkokXQpYhxsCHt62dw5KTIYmgaRBBKonTrG2+8IUoQt2nTJhr+ftUeYhyBJUuWiNofxQ3WpIthpcuJq3KyxVO8KJ/s9QrfvnQx0C3gsWScA60A/iBGKzbBX8TJUlvkXCQdQemLViqicAtIFwXdCpbmgbAi0JVguSuEW8HSVZDuDhmQKMf73R2BFgmbDY/qOh72+PDFtf3RqlJwhcCiXharVq3C0aNHI5pWa2XunHG73aGZQ4p68H/QP2nZ8ldrOp2DY40gGEBKxohhc8MIVVRNNWXKFAbl7OrSsE/1Hm2oB2WYN3HeOa0CSeIJ23q6N+svsFCSlYrIlEXerGWdBFoaMhymW4E3XuFWMIQlQbwm4ZCBgowb4FM8xzPbQJSYpnCS2U+EG9D1IMfwtYxfYBYEyzXToiBEm8y5RBlobolWDxIYjhFuBWuPci5aERgAycwHWhEMDWmb5+OIGaTYLIggMLCreojBS1F11tVmyh0CixYtwtmzZ0MiCGtcDvSi394q8xyYyhikkEhXANMP6VZgsKElqCSyCqzSznw/UIXRr7YoCUFAzIB0CzCVUsQ8kBzIzImAUs7CcsH4JJmtwLRKay/cc6BbQbxvFYp61OPFfzQdXw8cgIsrVgzp2jh9+rRIX47k94XP56M4WNdLL730i5AOJoyDKyxd/nmczdblysqVRJqji6qaug4n02CZfhrwHi3T8Tab+ZnVz+xv9pXvyc/leP4uLaUTaUEwDMOdMXJ4ahihiqqpJk2aVNVms+3q3KBPjZ5trjbdCoZVeMnKKhAmfpEhwAqPpp6BiE3gjZc3+0ya8vmZT5AD4VbgjVuY8nmz5k2YcUxWKiIDC3lTZz+mGYp4AMutcI4ZDXRfsDiUjC3wWITEvNmLGzpbgsesFsl/8zXdDnR3WNUiWehJuD6EW4FjNJH+KAgFSVCC5a4guYn3YsUXz+HIqQP8+24urrNbbrnFdu+9937TsWPHS6PqrKnNFBoBfllv3rwZnTp1KvSYWOy4cOFCZGRkhEQQ3kyIQ1cGCVome38qIp/287sCpFshwPwf5FaQdRqsbAVZnMnvVmBcA8mEFecgrAXUObBuAn5xJSvN0r8XK/VSxkkEuhWkoJKsQimLQT2k2zDX68OWQQPRpEJSrJz+Jpqm/RQNB5O0dMUaTcNN0bCXEtjD+vQYllq+9dZbPZomZZDCgx7dk7pmg67pv/8wrkmzQeN74rX1G/xt9jU/YwaVHbpNM/sZNug2s6/G1/xxwhzvs0O3m/00xiLkz1Tgv0kahMiSlRnhz7qwpFelR8WrYeexzUjPOksQpgUqKa4DoOQOw3NtFH6WLC8fIwrf/wI9VZqjCQzTHDMzM9GxY8diYUoXw3suJy7z5AU9+Z/nVrDEkaSSonhCsFIihSyyLBFNt4LH489ikLoIos4CrQCWrLIoEW1VbiQ5EETB0jaQKY6B7g6RLUE3ZWDQZKC7ItCiwABIXccDmo55Xh92XD8IDRITi4VPFA6qp2nakWjZV9LSFes0oE76yGF/7FM1DA0vveSCz+eoYLc7fT6fwxcX53BqmvmaIn4u3W544DQ0r9Om6w4YNgdf64bugG44dC+chm44DC8c0DUHQ98gDNQ+JzRhqHbw+dSA4eC/NR9lATWHYZjGCdlXMzQHNEOMtULuAuA0eKG0MuCbmjFixHPRgnO49zGFil/AI4Zh/Khp2g7DMOIMw3BpGjEF68bztWkKKMXGQooaGYMIUzTjn/P9+N8zDEO3+ubvV9RxghdomvajeMFNAKDQSJ9SPPaiL+XxAb/mArV4vgrRfGRLAT/8RvUyCMR6z0Npy3x9Avuf95rj2d/KKy3sWK6TL2/dv/s8AxhUC2gS2hOdIgiFuB7+pAt1BCqtWIkNTgcuyc3xKyTSTB+kSmj59uk6EG6FAMlj8YTPOANLbZGuBlFbISAeQKYisoiSTIukW4D1XM+LObDUFplKyfWki4Ikgu4OYdGQbgW5RoCKoywUxfEP5OZhvqZj9w3XoU6EtAtCP0vnzVBZ0zTxuBMNrfqLL1bIi4uznx016nQ07CfkPaSlOV0+X6OcihUPYODAnJDni+IJxo8fX0vX9cwFCxakR9M2eX9+4IEHtJ07d2qtW7fWjh49qp0+fVqrVauWlp6erlWpUkXLzMzUsrKytAoVKmjZ2dlaYmKilpOTo+Xm5mrx8fHid15enhYXFyd+u1wuzePxiB+n0xn0W9O0eZqm3QAgMZAgfAjgqnADs2bNGtSsWRPdu3cPbeqfs4ClB83A0lhrlRzAlCYhHZUiCCHBJwZne72osfJVrK9UAe0yMky9E2oeWG4FGTgozfxCiIgDrYwDWdzJX/5ZZjtYZZ5pIZCZD+LJP6BQU2DgYUFuBRHjIN0KAYWbhOXBUnQUyokyo0K+Lws9eb24FxpeNIC9N16PmvHxIQFGlxZjAIpTUjukhQMG01L00ksvzZvBAiSqKQQUAmFBYPz48XEvvfQSyaApx7RhwwZ7/fr1dzRt2rRFWFYImISpSPXr10efPiEaJ9LzgOd/Mp/gGycCNlPWEnrgb77O92+R1sEwTdm3gP4ibiP/+1Z/OVb8LuSa3Jed//uTdioHeHE/0Lkq0Ds06VtFEP4M7D///GxuHuqvXoMPa9dE2xMnggSRGCcgpZcFJ7BqNYhZA/QOROoigxZpRZBCSZYugsiC4GvexC0ZZ+GKsKSQ/cJHlouBfYU4klVuOnCMKBRFYsK5LHcHrQsyIPG815qGOzUdi3wGfvrLjagWYpGlUNNJ//xs/HmPZ599Frm5uXC73aUVs/fnm1I9FAIxhID4w5o7d24vAJ8UNzXsQnjQZMuo8kaNGqF3796hwzZnL5DrA+4OO48JfW/FmSEjD5j/I3BpJeCaWsWZwT9GEYSQ4BODj2dno9lrb+BrlwONs7JEKiNvuNIVIG7WHo8ZQS5rM0iFRN7E6VZwOkUf3tTZXxZL8s/FGg+8oVvKizIL4rxUxsC5aMXgGCtbQbolhIqj9T4LRdHSwX9zv/J94brQNHEsd+R5sAQaDg6+CZWtNM3iopaaaga0h/s7oyj7UQShKGipvgqBoiMgCcJgAK+G+49dEoRmzZqhR48eRd9d/hGxRhAyPcDT+4CWFYDr64SEjyIIJnyLFy8WuhvFcWk9vmsXHti6/bzzQFuQg4Yo/48B6iXKf7M6g41FkiiZLgxWZg0H2gtoePp9nDnGbvhE9HHQa1FW3iwv7dPNtEnRrOhiEQBJ65hVF0K4MwJIiqEzh1kGNnJ3rBTpg8Gyr2KMga80DQcMA7c0aIAXu3cN6XpTBCEk+NRghUCZQEB846Smpk4wDGNBuAkCfZS0ILRs2RJdu4b2hSTQjDWCcM4DzNsHNE4Abq4f0gWTlpZG5SuMGhWzJdsLhQ9vXLRYUfSrqG3lgYN4cNs2dKhazVQyC1MjUfZaP76A13zv938zXrbgfhd6P3h84FyGiJ/guIKaXdPw+lW90atG8Us+K4IQpotDTaMQiGIEpAVhJoAnwk0QGMjEJzqqKIYlPz/WCAJTHJ/6AagbB4xsGMWXSdnZGm9cvN5CjnkpO4dc6J2O2/Qp1hw6jN+GDy30mAt1VAQhZAjVBAqBqEdAEIQnn3zyQV3X/6ckCAItCJdeeik6dOgQOhixRhCyvUDqD0CdOGCUIgihXyDCGoYuXbqgc+fO4Zgupub4MT0De9PT0b8OC9eF1hRBCA0/NVohUBYQkBYERhzNCDdBIACfffYZ6tWrJzIZQm6xRhByfMDcvUDtOGC0IgghXx+muwxXX301WrduHY7p1BwXQIA4s4w7izVFqlnVHNe73W6K56umEFAIhBkBQRDmzJnzpMPhSLntttvCPH2Yp4s1gsCMDB5TLRcwplGYwSqf0/HGdeONN6JBgwblE4BSOmrGu5AgUN41ko0yc5FcX62tEIhlBMQf144dO5z169c/ULFixdBy7UoaqVgjCHk+4Mm9QE0XMDY0gvDDDz8gPT0dl112WUmfhaienwRhyJAhqFMntKyQqD5ItTk/AoogqItBIVCCjV00AAAZYElEQVRyCEglRepNHwYQmlpPye3TnDnWCAKlo5/YC9RwAeNCIwgqzdG8RD7//HMREMunW9ViHwFFEGL/HKsjjBwCgQThKICq4d4Kn2pdLhecIQqzxCRBoCrk498DF7mA8YoghPvaU/PFPgKKIMT+OVZHGDkEJEFwATjJ4gzh3Ar9lK+88orIYGAmQ8gt1iwILPb02PdAdRcwQRGEkK8PNUGpIUCJYzuVJSMYg8AA6K+//nqu2+1OKbUDVwspBMoRAoIgPPPMM5d369bty0suuSSsAT/Z2dmCILD0blh847FGEChk8+j3QDUnMLFxSJcdXQxnzpyJaFR5SAegBpcpBCKd5kjxKUot5+XlZbrd7tBKoZYp5NVmFQKlh4BMc6TwmhbuNMesrCxBEC6//HJFEC50Th/ZA1R1ApOKTxD4ZblkyRLk5ORg0qRJpXf1ROFKx48fx0UXXcRa5lG4u9jZUqQJAlVan3vuORKE0263O+yu0dg5U+pIFALFR0ASBKHJGm6CcO7cOUEQGDQWjRaElc9Nx9bPViM+sTKSKtXAhLtW4KnZV4uS0ucyTmHwpDno0HMoXnv5buRln8PWz1ejXZebMGza/OIjnn8kCUIVJzC5+ASBipUkCDT3jh49Onx7K2MzeTweWsMwderUiJYhLmOwFWu7kSYIvOaff/55VnP8JSUlJbqzr4qFsBqkEIg8An6CwCeucJdVZ712EgSq2kUbQSABWDbvVgye9CRO/LwXK56Ziv633I81C+/Afam7cfrkYWxaOx8t2l+DPVvXoWHzzmjf/WZ8ueFl7PjqTUx/YF14zh4JQmUHcGuTYs/Hpym6GJo0aVKsIkXFXjjKBmZkZGDhwoWYNm2aIgglfG4iTRBIBl944QVaEA653W4lelHC51tNXz4R8BMEh8MhvljD2fiFTYJA6dtoIwi7v10HA160umyAOOTH7+0mCMD7q/6N+57ajQqVauCn3Z/imX8NwmU9hqJu4/boNcAUkrrjFhceX5kTHqhIECo5gCnFJwjh2UjZn+XXX3/FsmXLFEEohVMZaYLAAOgXX3yRBGGf2+1uVgqHrJZQCJQ7BPwEIT4+HpMnTw4rAExxpOk7GglCdlY65vz9Ctz7xLfg639Nb4ErBiVj/WuP4r6ndgmCsG/nRix7egqatbkC9Zt2RI9rpsDwefHXMdXx8JLT4cFKEYTw4Ajg559/xquvvqoIQtgQvfBEJAjMYoiU+iqzKCyCsCslJUXpapfCOVdLlD8E/AShYsWKGDduXFgRYPDc/v37Ub16dVSoUCH0ucOYxWAYPmx67zm8m/Yg6jW+DEkVq6NBs05Yu+JBNGrRDfv3fI5mbXpj3B1LsOoFNzRNx3dfv424hIoYOeMFNLo4DOWriYgiCKFfF9YMP/74I95++21FEMKG6B8ThKZNm2LgwIGlsNr5S9CttmDBApw7d25GSkrKvIhsQi2qEIhxBCRB+Kpdu3aXX3nlldF9uGEkCBc60Psm1MJ9qbuQkFTF32X5/Klo3WEgLulyY/jxUQQhbJju2rULH3zwgSIIYUP0whMxBoBqlRHOFsnTNI0qsKopBBQCJYCAFEqKA5BVAvOHd8pSIAj/mtES9zy2GU5Xgn/vq55PRvdrpqBOw3bhPZ4wWRBoqWFlOz7RMWOkvLZt27bh448/VgSh/FwAv2iapjIYys/5VkdayggoglDKgJ+3XBgsCGfPnsWiRYvQtWvXck0QSJSOHDmCunXrRvrJNtJXVXlZ/wdN05qXl4NVx6kQKG0ESpwg7NmzBw0bNkRcHI0UIbZSsCCEuMOiD1cEoeiYqREKARMBRRDUlaAQKEEESpQgnDp1SuTn9+jRI+rSHEsQ06JNrQhC0fBSvaMCAf5tM/OJP5FoDFKkDkJubu7E5OTkhZHYg1pTIRDrCMggxc+GDBnStU6dOmE9XpmX3rNnT0UQLoSsIghhvebUZCWPACXUeXOOZBbDyZMnsXz5cni93odSUlL+p+SPWq2gECh/CPjTHFkvoVu3bmFFQBGEQsCpCEIhQCpcFxYH++mnn9CqVavCDVC9ioUA9U1eeuklNGvWDNdee22x5gh10IkTJ0RgrmEY97jd7kdCnU+NVwgoBM5HwE8QunfvLqouhrMpglAINBVBKARIhevyySefYOvWrSqLoXBwFbuXDIpt2bIl+vXrV+x5Qhn4yy+/YOXKlSQI09xu97OhzKXGKgQUAgUjoM2ePVuvVq2alxoI7dqFN41PEYRCXHZhIAis4khJ6+uuuw41a9YsxKKx2YUpjtu3b1fFmkr49DL+gAqpbdu2xVVXXVXCqxU8vVTNNAxjbEpKyuKIbEItqhCIcQS0uXPnugBkX3PNNWjRokVYD1cRhELAGQaCUIhVykUXEoSdO3fi1ltvFTLAqpUMAjTv0//P+iqML4pEO3z4MNasWUMLgiIIkTgBas1ygYA2b968JK/Xm86nz8aNi19yuCC0ZBYDzZBhIR/FSXP0GoDPAIJ+I/jf/EwUvC5k8/iAbC+Q7QOy+Nv6Ea/lZ14gy2euU5hm14BZFxemp+pzAQRIEJhWO3HiREUQSvAqoXk/LS1NVGllnZVINEUQIoG6WrO8IaA9/fTTVTwez6kbb7wRDRqEt2oqhWto/na5XOERrpEEId5W+PPE+7Nh3aTFa+vfga85WyHv44Vf+E962jSAx5HhAeJ0YEQDoDqNOaoVFwEShB9++AHjx48XMsCqlQwCp0+fFi6t0aNHo0qV3yXJS2a1gmdlsaYFCxYYHo+nXnJy8s+lubZaSyFQXhCQLoYfhw4dWieq/dd8Sp+/D/AE3Ml5k3Xqf/zjCvhcEzGZhWvsyvn5ZC9+dPPfDg2w6cHv83N+Vpx26JxJDIpCeoqzTjkYQ4LA4mBjxoyBruvl4Igjd4gst8wS8RFufTRN2xDhPajlFQIxi4AUSqoL4HDUH+Wrh4HTecDk8LpCov64/2SDtNIwaIx1GMIdaFqWsNm4cSNoeh4+fHh4LFZl6eDL5147apq2uXweujpqhUDJIyAJAtMXtpX8cmFYgQaEYj6sh2H1qJxC1WIwTwtdWmwRrjAYlddIjG6qgaZph2L02NRhKQQijoAkCF0BfBbu3bAkLM2+TIVSJt9wo/v7fIoglBy2auaoRqCmpmnHo3qHanMKgTKMgCQI1wN4I9zHIdMc+/fvj4svVhH64cZXzqcIQkkhq+YtCAG6tHbv3o3WrVtHLA7ht99+E4GSHo9nREpKynJ1phQCCoHwI6A9/vjj8Xa7/dxNN92E+vXrh3UFSRAGDBiA5s1VVdawghswmSIIJYWsmrcgBChG9dFHH2HUqFGoWrVqREBSaY4RgV0tWs4Q0ObMmdNd07RNJZHmKAnCwIEDRWEX1UoGgTNnzmDx4sXo2rWrCFQsr+27774D6wQQB9VKDoEtW7aAAaFMJ61QoULJLfQHMyuCEBHY1aLlDAEShKs0TVtfkgRh0KBBaNKkSTmDtvQOV+all3eCwHgXVvkbPHhw6YFfDlf65ptv8Omnn2Ly5MkRK/esCEI5vPDUIZc6AtqTTz7ZX9f1tYoglDr2YVuQT82rV6/GuHHjwjZnWZyIBIHqnX/5y1/K4vbLzJ6//PJLfPHFF4oglJkzpjaqECgeAiQIN+i6/npJEgTqtVO3XTWFQEkisGHDBjAeg/E0qpUcAp999hm+/vprRRBKDmI1s0IgKhCgkuLNAFaWJEFo3749evXqFRUHrDYRuwi8//77OHfunCIIJXyKN23ahM2bN0cFQdA0bUxycvIrJXzIanqFQLlEgDEIwzVNW1YSBIFPc0uXLhUCNrfffnu5BFgddOkh8PbbbyMjIwNDhw5VYkklCDsrZpIg3HLLLaLOSiQav1teeeWVTTNmzIhMOclIHLRaUyFQygjQgnCR0+n8ecKECXan0xnW5UkMFi1aBOYsd+/eHR07dgzr/GoyhUAgAq+99hoOHTqEadOmRSw/v7ycEZ/PFw3iZxU1TUsvL5ir41QIlDYCUihpHYC+JbH4vn378M477yApKUkU0bHb7SWxTLmec8WKFfB6vRg5cmS5xmHt2rXYu3evIgjl5ypQBKH8nGt1pBFAQBKErQAuKan1V65cCabiTZgwQT3ZhRlk3hB5Y6RZPaqrcYb5uAuajlkM27ZtQ58+fdCmTZtSWFEtEWEEFEGI8AlQy8c2ApIgnARQYpJorMlAd0MUlIeNqbNJTJ955hkkJCSoEseAKPX85ptvinPMmBebzRZT51sdzHkIKIKgLgqFQAkiIAmCWQavFBt9mN9++63wY/KLPPB3rVq1UKlSpaDd0ITOwKT8/Tm2PBIPyt0yFz03N1fk/deuXbsUz170LkV3y/Hjx4W1im4t1cKLAP9uWVq8c+fOaNGiRXgnL8JsjDV5/fXX6VrrPXPmzE+KMFR1VQgoBAqJAIMUB+m6/tbYsWNLVTZVBpQVtE+SgOnTpwd9JL/4C+ofHx8vUq4CW1paGn755ZcCYWDhKBaQko0WDmZbkIAU1PIrQWZmZoon1ezsbEFuAn/i4uLQr1+/oOhuRtYz8ps3c/ZlHIYcwyjwli1bBi3L/Rw8eDDoPY6VQaRUkdu6dasgUT169FAy1gFIMc0xLy/vPIJZyL8H1e0PECCulPTm9R/p+irStabr+vUzZsx4S504hYBCIPwIiDRHXdeXDRs2DBdddFH4VyjBGfmFxZspCUL+duLECRw9elTclNmPP3xNSwTLT+fP2CBh4Y2XZvv8jdjUqFHD/zZv+AsXLizwyDRNA8lWxYoV/Z/zZv7JJxd+yElOTg6ai09oVAS8UOP+uVd+SaumECgNBGg5mDdvnliKpLRDhw6lsewF12A1yXXr1vHveeCsWbPejehm1OIKgRhFwE8QRowYgWrVqsXoYUb+sEhM+CXLH5IQ+ZrukYJyyWkm5xjZV/5m9bxIFciJPIrF28EHH3wgyGJBlQfbtm2Lhg0bBk3Mok8sNJbfOkTLT6tWrc4jl0zjpdx1oKuMr3leCyKvxTuKyIwisaZC5YEDB4TFjOSUmEW60SL34Ycf0uV4zYwZM5iFpZpCQCEQZgT8BIEpcpEq3RrmY1LTKQSCEGCsBm/6NI3nb1T4pNKnbHRR0DpEAldQYyGounXr+j+SlTQvBDldZXSZycZiUnRnXajNmDEjSOSJxGbVqlUFdue8t912W9D8e/bsEU/W+ckK+9apUwd9+/YNmp+meo4pqH/jxo2Fq4uxQsyQYdxBo0aNouLqYrYKs1a8Xu/Vs2bNWh8Vm1KbUAjEGAKCINhstmWjR49WftsYO7nqcEofAVp6+NRN6w/dTYxJyd9+/PFHZGVlCfeY/OEYEg/elAMb31+zZg1ycnL8faUbjCXUr7766qD+1B3hk3VBjQ8AN99MZfXf2/r16/HDDz8U2L9169bCnUCyFG0ZIbLkNIAr3G73xtI/02pFhUDsI+AnCKUdpBj70KojVAiUXQRIQkhworXJktMej6ftHXfc8V207lPtSyFQlhHwE4SJEyeWeX9pWT4Rau8KAYVA4RE4e/askZaWNm7KlCmLCz9K9VQIKASKgoD2xBNPtG/ZsuW3KiK+KLCpvgoBhUCEEcgGUF3TtPMDSyK8MbW8QiBWEIiYUFKsAKiOQyGgEIgIAhkAaimCEBHs1aLlBAFFEMrJiVaHqRCIMQRYxZEE4VyMHZc6HIVA1CCgCELUnAq1EYWAQqCwCOTm5mYsW7ZswPjx4zcVdozqpxBQCBQNAUUQioaX6q0QUAhEAQKsw0CNBpfL5Zw6dWpeFGxJbUEhEHMIsBbDDJvNlsrqd6opBBQCCoGygMDLL78MKli63e7ozcUsC0CqPSoE/gABEoR/22y2vyuCoK4ThYBCoKwg8PzzzwvpZ0UQysoZU/ssiwiQIDxhs9lmKoJQFk+f2rNCoHwiwMJRVHhUBKF8nn911KWDAIWSnrXb7VMUQSgdwNUqCgGFQOgIpKamikkUQQgdSzWDQuBCCJAgvGK320dNmjSpwKqCCjqFgEJAIRBtCCiCEG1nRO0nFhEgQXhN1/UbWcSlVq1asXiM6pgUAgqBGEPgqaeeYil0j9vtdsTYoanDUQhEDQKMQVgLoP+NN96IBg0aRM3G1EYUAgoBhcCFEPjtt992L1++vOvUqVPPKpQUAgqBkkFAFGvSNG3ZJZdcgt69e5fMKmpWhYBCQCEQXgQ+BdBT0zQjvNOq2RQCCgGJAC0ITQH84HQ6MXXqVIWMQkAhoBAoCwh8pGnaVWVho2qPCoGyioAQGUlNTe0xceLExxMSEjqX1QNR+1YIKATKFQIbNE3rU66OWB2sQqCUEfCrkBmGoQP4AIBi5aV8EtRyCgGFQNEQOHTo0L41a9b8JyUl5bmijVS9FQIKgcIicJ5MqWEYO71eb9PffvvNqWka6HrQdR18zR+73S7+rZpCQCGgEIgUAirNMVLIq3XLEwIFEQRt0aJFX549e/byCxGEsWPHBmH07rvv4tSpUwXi5nA4MHTo0KDPtm/fjm3btp3X32azoUuXLmjcuHHQZ0ePHsWxY8fAufhD0iJf16xZszydL3WsCgGFgOkWZZrjtykpKR0UIAoBhUDJIFBgoZPZs2cnVa9efYbldsi/cp7b7X4k8M05c+akaJrWwDCMeABxuq67DMOIA+Dy+Xz8I34WAM0O/LxiampqMoBB7Ms+AGxyvvj4+LWTJ0/+KPC91NTUaQDqFwRBnTp1vhgyZMgb8rNjx45VXb169R1er7fAY+vRo8eHHTp0OA6gCgD7gQMH6r3xxhstA+cmUeFPfHw8hg8fLgiJbN9//z327NnDLyfRJ/CH/Xr27Bm0TVacO3LkSIFnj9aYTp06BX2WkZEBEihpreH87Mff9erVQ8WKFYP65+bmgmMC+8nXnEM1hUCsIbB3716sXbsWXq+3zqxZs47G2vGp41EIRAsCMXkHmTNnTnObzVY9Nze3gs1mSwSQBIC/XadOnZr34IMPeuQJmDt3LgkKCUZFLd8d1efz/Wa32wdPnz49Q/ZPTU29FsDsgk6gYRiG2+3uFvhZamrq24ZhtLAIj90wDJumaSRE/DmRnJz8NwCVSVYAJMydO3eapmmtLnCBZCUnJweZXubNm9fG5/Px+M5rtWvXPnvzzTfvlh8YhkHrUGdWwSuo9erV62z79u3TLTJnz83NdaSlpVVhURxpsZG/SZ6YFhsXR45ntszMTNDa4/V6g/pLWPNbe0huTp8+XeBeSHKqV68e9BlJmewf6Pbia+6HY/I36vVL91i0/NGpfRQfAV5br776Ki2KR06dOtXswQcfzC7+bGqkQkAh8EcIxCRBiLZT/vjjj8d7vV49ISFBi4uL006cOKG7XC7NZrNlud3unMD9pqWlOY8cOVKtoGOw2WxUjjsR+Nmjjz5a3WazBanJaZrm0HU9yePxHLvjjjsCfT9Max3n8/na2my2Cj6fj6SogmEY/J1YqVKlyWPHjt0LgNeF/tFHH8Vv3779IICC1OqM+vXrD7jpppu2y/0sXLjwpoyMjKcvhH9ycnKdgM+0BQsWrMjMzAw2uVgdeNOfPn36k5aFidae6kuXLu11+vRplyQcgb9pZZk8eXLQ0m+88QZOnDDhym9NqVSpEoYMGRLUf/369di/f3+B2+/evTtatgwyNGHz5s04c+aMIEMul8vv/qIlqWnTpipWJ8x/iDk5OVi5cqUgiYZhXJuSkkKRN9UUAgqBEkJAEYQSAlZNC8yePduuaZqzUqVKTqfT6Qm0xEh85syZ013X9Tifz+fUdd3p9Xpd/K3r+qEZM2Z8EojjI488UsPlcgXf1X/v4HO73XRl+ducOXNu1DStjs/ni9M0jaaOeF3X430+H39/mpycvJSdLXeYkZqaOscwjB6aptEVJtxl/G0YhqtatWoPjxo1ijekSiRPP//8c8Lq1aufMgyjakHnumPHjs917959i/xsy5YtLTZu3JhyoetizJgxd1WuXJlkketqW7ZsuWHjxo09CuqfkJCASZMmfWZZxkieKu/YsYNkjtYpQUwCXV+0rvTt2zdoqn379uHQoUMFbofjr7jiiqDPfvrpJxw4cCDoPZIy/jBmKL91iDdxur6ke0z25W/u/89aVlYWdu3ahQ4dfg8x2Lt379y1a9e6fT7fXTNnznzsz+ZQnysEFAKhIaAIQmj4qdEKgUIjMHv27LjExES6kxKdTmeiYRiJuq4n+Hy+7FmzZlEZMEgVcM6cOYz1qUzrDsdomkZ3GMscH05JSQkylzzxxBOt7Hb7ExfaTHJy8oB85OkfmqYNpGtL0zS6vvhDSxH/fTA5OfkGut0AMAo4bv78+f/yeDy09rBP0PdGtWrVto8cOfIbbg1ANa/XG79gwYKu2dnZwQEz1gY6duy4p3v37n5TzZkzZ5IWL15cIBnikCFDhnxQp06dUZqmnZg9e7Yt0EVYaPBVR4WAQqDICCiCUGTI1ACFQGwgMHv2bJGvvHPnTu2WW27Bd999J74PHnjgAW9+CeO0tDTbsWPH7CdPntQaNWoUBEBubq536tSpeYFv0lWWmZlZYD70/v37PYE3ecbGpKamXuHz+eprmkYLDYnFOE3TWhiG8Yymafe63e6CA2di41Soo1AIRCUCiiBE5WlRm1IIlG8EUlNT2xmG0dPtds8v30ioo1cIRA6B/w+GhcRVUKXhhQAAAABJRU5ErkJggg==;" vertex="1" parent="1">
          <mxGeometry x="1015" y="1250" width="520" height="199" as="geometry" />
        </mxCell>
      </root>
    </mxGraphModel>
  </diagram>
</mxfile>
